  0
SECTION
  2
HEADER
  9
$ACADVER
  1
AC1015
  9
$ACADMAINTVER
 70
     6
  9
$DWGCODEPAGE
  3
ANSI_936
  9
$INSBASE
 10
0.0
 20
0.0
 30
0.0
  9
$EXTMIN
 10
0.0
 20
0.0
 30
0.0
  9
$EXTMAX
 10
1189.0
 20
841.0
 30
0.0
  9
$LIMMIN
 10
0.0
 20
0.0
  9
$LIMMAX
 10
1189.0
 20
841.0
  9
$ORTHOMODE
 70
     0
  9
$REGENMODE
 70
     1
  9
$FILLMODE
 70
     1
  9
$QTEXTMODE
 70
     0
  9
$MIRRTEXT
 70
     1
  9
$LTSCALE
 40
1.0
  9
$ATTMODE
 70
     1
  9
$TEXTSIZE
 40
3.5
  9
$TRACEWID
 40
1.0
  9
$TEXTSTYLE
  7
Standard
  9
$CLAYER
  8
0
  9
$CELTYPE
  6
ByLayer
  9
$CECOLOR
 62
   256
  9
$CELTSCALE
 40
1.0
  9
$DISPSILH
 70
     0
  9
$DIMSCALE
 40
1.0
  9
$DIMASZ
 40
4.08
  9
$DIMEXO
 40
0.0
  9
$DIMDLI
 40
3.75
  9
$DIMRND
 40
0.0
  9
$DIMDLE
 40
0.0
  9
$DIMEXE
 40
2.0
  9
$DIMTP
 40
0.0
  9
$DIMTM
 40
0.0
  9
$DIMTXT
 40
3.5
  9
$DIMCEN
 40
2.5
  9
$DIMTSZ
 40
0.0
  9
$DIMTOL
 70
     0
  9
$DIMLIM
 70
     0
  9
$DIMTIH
 70
     1
  9
$DIMTOH
 70
     1
  9
$DIMSE1
 70
     0
  9
$DIMSE2
 70
     0
  9
$DIMTAD
 70
     1
  9
$DIMZIN
 70
     0
  9
$DIMBLK
  1

  9
$DIMASO
 70
     1
  9
$DIMSHO
 70
     1
  9
$DIMPOST
  1

  9
$DIMAPOST
  1

  9
$DIMALT
 70
     0
  9
$DIMALTD
 70
     3
  9
$DIMALTF
 40
0.0393700787
  9
$DIMLFAC
 40
0.5
  9
$DIMTOFL
 70
     1
  9
$DIMTVP
 40
0.0
  9
$DIMTIX
 70
     0
  9
$DIMSOXD
 70
     0
  9
$DIMSAH
 70
     0
  9
$DIMBLK1
  1

  9
$DIMBLK2
  1

  9
$DIMSTYLE
  2
ISO-25
  9
$DIMCLRD
 70
     0
  9
$DIMCLRE
 70
     0
  9
$DIMCLRT
 70
     0
  9
$DIMTFAC
 40
1.0
  9
$DIMGAP
 40
1.524
  9
$DIMJUST
 70
     0
  9
$DIMSD1
 70
     0
  9
$DIMSD2
 70
     0
  9
$DIMTOLJ
 70
     0
  9
$DIMTZIN
 70
     0
  9
$DIMALTZ
 70
     0
  9
$DIMALTTZ
 70
     0
  9
$DIMUPT
 70
     0
  9
$DIMDEC
 70
     2
  9
$DIMTDEC
 70
     2
  9
$DIMALTU
 70
     2
  9
$DIMALTTD
 70
     3
  9
$DIMTXSTY
  7
Standard
  9
$DIMAUNIT
 70
     0
  9
$DIMADEC
 70
     2
  9
$DIMALTRND
 40
0.0
  9
$DIMAZIN
 70
     0
  9
$DIMDSEP
 70
    44
  9
$DIMATFIT
 70
     3
  9
$DIMFRAC
 70
     0
  9
$DIMLDRBLK
  1

  9
$DIMLUNIT
 70
     2
  9
$DIMLWD
 70
    -2
  9
$DIMLWE
 70
    -2
  9
$DIMTMOVE
 70
     0
  9
$LUNITS
 70
     2
  9
$LUPREC
 70
     2
  9
$SKETCHINC
 40
1.0
  9
$FILLETRAD
 40
10.0
  9
$AUNITS
 70
     0
  9
$AUPREC
 70
     2
  9
$MENU
  1
.
  9
$ELEVATION
 40
0.0
  9
$PELEVATION
 40
0.0
  9
$THICKNESS
 40
0.0
  9
$LIMCHECK
 70
     0
  9
$CHAMFERA
 40
10.0
  9
$CHAMFERB
 40
10.0
  9
$CHAMFERC
 40
20.0
  9
$CHAMFERD
 40
0.0
  9
$SKPOLY
 70
     0
  9
$TDCREATE
 40
2457768.485579433
  9
$TDUCREATE
 40
2457768.152246099
  9
$TDUPDATE
 40
2457768.48558309
  9
$TDUUPDATE
 40
2457768.152249757
  9
$TDINDWG
 40
0.0000000116
  9
$TDUSRTIMER
 40
0.0000000116
  9
$USRTIMER
 70
     1
  9
$ANGBASE
 50
0.0
  9
$ANGDIR
 70
     0
  9
$PDMODE
 70
     0
  9
$PDSIZE
 40
-1.0
  9
$PLINEWID
 40
0.0
  9
$SPLFRAME
 70
     0
  9
$SPLINETYPE
 70
     6
  9
$SPLINESEGS
 70
     8
  9
$HANDSEED
  5
221
  9
$SURFTAB1
 70
     6
  9
$SURFTAB2
 70
     6
  9
$SURFTYPE
 70
     6
  9
$SURFU
 70
     6
  9
$SURFV
 70
     6
  9
$UCSBASE
  2

  9
$UCSNAME
  2

  9
$UCSORG
 10
0.0
 20
0.0
 30
0.0
  9
$UCSXDIR
 10
1.0
 20
0.0
 30
0.0
  9
$UCSYDIR
 10
0.0
 20
1.0
 30
0.0
  9
$UCSORTHOREF
  2

  9
$UCSORTHOVIEW
 70
     0
  9
$UCSORGTOP
 10
0.0
 20
0.0
 30
0.0
  9
$UCSORGBOTTOM
 10
0.0
 20
0.0
 30
0.0
  9
$UCSORGLEFT
 10
0.0
 20
0.0
 30
0.0
  9
$UCSORGRIGHT
 10
0.0
 20
0.0
 30
0.0
  9
$UCSORGFRONT
 10
0.0
 20
0.0
 30
0.0
  9
$UCSORGBACK
 10
0.0
 20
0.0
 30
0.0
  9
$PUCSBASE
  2

  9
$PUCSNAME
  2

  9
$PUCSORG
 10
0.0
 20
0.0
 30
0.0
  9
$PUCSXDIR
 10
1.0
 20
0.0
 30
0.0
  9
$PUCSYDIR
 10
0.0
 20
1.0
 30
0.0
  9
$PUCSORTHOREF
  2

  9
$PUCSORTHOVIEW
 70
     0
  9
$PUCSORGTOP
 10
0.0
 20
0.0
 30
0.0
  9
$PUCSORGBOTTOM
 10
0.0
 20
0.0
 30
0.0
  9
$PUCSORGLEFT
 10
0.0
 20
0.0
 30
0.0
  9
$PUCSORGRIGHT
 10
0.0
 20
0.0
 30
0.0
  9
$PUCSORGFRONT
 10
0.0
 20
0.0
 30
0.0
  9
$PUCSORGBACK
 10
0.0
 20
0.0
 30
0.0
  9
$USERI1
 70
     0
  9
$USERI2
 70
     0
  9
$USERI3
 70
     0
  9
$USERI4
 70
     0
  9
$USERI5
 70
     0
  9
$USERR1
 40
0.0
  9
$USERR2
 40
0.0
  9
$USERR3
 40
0.0
  9
$USERR4
 40
0.0
  9
$USERR5
 40
0.0
  9
$WORLDVIEW
 70
     1
  9
$SHADEDGE
 70
     3
  9
$SHADEDIF
 70
    70
  9
$TILEMODE
 70
     1
  9
$MAXACTVP
 70
    64
  9
$PINSBASE
 10
0.0
 20
0.0
 30
0.0
  9
$PLIMCHECK
 70
     0
  9
$PEXTMIN
 10
1.0000000000E+20
 20
1.0000000000E+20
 30
1.0000000000E+20
  9
$PEXTMAX
 10
-1.0000000000E+20
 20
-1.0000000000E+20
 30
-1.0000000000E+20
  9
$PLIMMIN
 10
0.0
 20
0.0
  9
$PLIMMAX
 10
420.0
 20
297.0
  9
$UNITMODE
 70
     0
  9
$VISRETAIN
 70
     1
  9
$PLINEGEN
 70
     0
  9
$PSLTSCALE
 70
     1
  9
$TREEDEPTH
 70
  3020
  9
$CMLSTYLE
  2
Standard
  9
$CMLJUST
 70
     0
  9
$CMLSCALE
 40
20.0
  9
$PROXYGRAPHICS
 70
     1
  9
$MEASUREMENT
 70
     1
  9
$CELWEIGHT
370
    -1
  9
$ENDCAPS
280
     0
  9
$JOINSTYLE
280
     0
  9
$LWDISPLAY
290
     1
  9
$INSUNITS
 70
     4
  9
$HYPERLINKBASE
  1

  9
$STYLESHEET
  1

  9
$XEDIT
290
     1
  9
$CEPSNTYPE
380
     0
  9
$PSTYLEMODE
290
     1
  9
$FINGERPRINTGUID
  2
{BB06B18A-E1A2-4143-B1BE-F6401BFB0650}
  9
$VERSIONGUID
  2
{FAEB1C32-E019-11D5-929B-00C0DF256EC4}
  9
$EXTNAMES
290
     1
  9
$PSVPSCALE
 40
0.0
  9
$OLESTARTUP
290
     0
  0
ENDSEC
  0
SECTION
  2
CLASSES
  0
CLASS
  1
ACDBDICTIONARYWDFLT
  2
AcDbDictionaryWithDefault
  3
ObjectDBX Classes
 90
        0
280
     0
281
     0
  0
CLASS
  1
VISUALSTYLE
  2
AcDbVisualStyle
  3
ObjectDBX Classes
 90
     4095
280
     0
281
     0
  0
CLASS
  1
MATERIAL
  2
AcDbMaterial
  3
ObjectDBX Classes
 90
     1153
280
     0
281
     0
  0
CLASS
  1
ACDBPLACEHOLDER
  2
AcDbPlaceHolder
  3
ObjectDBX Classes
 90
        0
280
     0
281
     0
  0
CLASS
  1
LAYOUT
  2
AcDbLayout
  3
ObjectDBX Classes
 90
        0
280
     0
281
     0
  0
ENDSEC
  0
SECTION
  2
TABLES
  0
TABLE
  2
VPORT
  5
8
330
0
100
AcDbSymbolTable
 70
     1
  0
VPORT
  5
29
330
8
100
AcDbSymbolTableRecord
100
AcDbViewportTableRecord
  2
*Active
 70
     0
 10
0.0
 20
0.0
 11
1.0
 21
1.0
 12
594.5
 22
420.5
 13
0.0
 23
0.0
 14
10.0
 24
10.0
 15
10.0
 25
10.0
 16
0.0
 26
0.0
 36
1.0
 17
0.0
 27
0.0
 37
0.0
 40
841.0
 41
1.4137931034
 42
50.0
 43
0.0
 44
0.0
 50
0.0
 51
0.0
 71
     0
 72
  2000
 73
     1
 74
     3
 75
     0
 76
     0
 77
     0
 78
     0
281
     0
 65
     1
110
0.0
120
0.0
130
0.0
111
1.0
121
0.0
131
0.0
112
0.0
122
1.0
132
0.0
 79
     0
146
0.0
  0
ENDTAB
  0
TABLE
  2
LTYPE
  5
5
330
0
100
AcDbSymbolTable
 70
     6
  0
LTYPE
  5
14
330
5
100
AcDbSymbolTableRecord
100
AcDbLinetypeTableRecord
  2
ByBlock
 70
     0
  3

 72
    65
 73
     0
 40
0.0
  0
LTYPE
  5
15
330
5
100
AcDbSymbolTableRecord
100
AcDbLinetypeTableRecord
  2
ByLayer
 70
     0
  3

 72
    65
 73
     0
 40
0.0
  0
LTYPE
  5
16
330
5
100
AcDbSymbolTableRecord
100
AcDbLinetypeTableRecord
  2
Continuous
 70
     0
  3
Solid line
 72
    65
 73
     0
 40
0.0
  0
LTYPE
  5
3F
330
5
100
AcDbSymbolTableRecord
100
AcDbLinetypeTableRecord
  2
HIDDEN
 70
     0
  3
Hidden __ __ __ __ __ __ __ __ __ __ __ __ __ __
 72
    65
 73
     2
 40
1.905
 49
1.27
 74
     0
 49
-0.635
 74
     0
  0
LTYPE
  5
40
330
5
100
AcDbSymbolTableRecord
100
AcDbLinetypeTableRecord
  2
PHANTOM
 70
     0
  3
Phantom ______  __  __  ______  __  __  ______
 72
    65
 73
     6
 40
12.7
 49
6.35
 74
     0
 49
-1.27
 74
     0
 49
1.27
 74
     0
 49
-1.27
 74
     0
 49
1.27
 74
     0
 49
-1.27
 74
     0
  0
LTYPE
  5
41
330
5
100
AcDbSymbolTableRecord
100
AcDbLinetypeTableRecord
  2
CENTER
 70
     0
  3
Center ____ _ ____ _ ____ _ ____ _ ____ _ ____
 72
    65
 73
     4
 40
10.16
 49
6.35
 74
     0
 49
-1.27
 74
     0
 49
1.27
 74
     0
 49
-1.27
 74
     0
  0
LTYPE
  5
42
330
5
100
AcDbSymbolTableRecord
100
AcDbLinetypeTableRecord
  2
CENTERX2
 70
     0
  3
Center (2x) ________  __  ________  __  _____
 72
    65
 73
     4
 40
20.32
 49
12.7
 74
     0
 49
-2.54
 74
     0
 49
2.54
 74
     0
 49
-2.54
 74
     0
  0
LTYPE
  5
43
330
5
100
AcDbSymbolTableRecord
100
AcDbLinetypeTableRecord
  2
DOT2
 70
     0
  3
Dot (.5x) ........................................
 72
    65
 73
     2
 40
0.635
 49
0.0
 74
     0
 49
-0.635
 74
     0
  0
ENDTAB
  0
TABLE
  2
LAYER
  5
2
330
0
100
AcDbSymbolTable
 70
    14
  0
LAYER
  5
10
330
2
100
AcDbSymbolTableRecord
100
AcDbLayerTableRecord
  2
0
 70
     0
 62
     7
  6
Continuous
370
    -3
390
F
  0
LAYER
  5
44
330
2
100
AcDbSymbolTableRecord
100
AcDbLayerTableRecord
  2
SLD-0
 70
     0
 62
     7
  6
Continuous
370
    -3
390
F
  0
LAYER
  5
45
330
2
100
AcDbSymbolTableRecord
100
AcDbLayerTableRecord
  2
10
 70
     0
 62
     7
  6
Continuous
370
    -3
390
F
  0
LAYER
  5
46
330
2
100
AcDbSymbolTableRecord
100
AcDbLayerTableRecord
  2
5
 70
     0
 62
     7
  6
Continuous
370
    -3
390
F
  0
LAYER
  5
47
330
2
100
AcDbSymbolTableRecord
100
AcDbLayerTableRecord
  2
9
 70
     0
 62
     7
  6
Continuous
370
    -3
390
F
  0
LAYER
  5
48
330
2
100
AcDbSymbolTableRecord
100
AcDbLayerTableRecord
  2
轮廓实线层
 70
     0
 62
     7
  6
Continuous
370
    40
390
F
  0
LAYER
  5
49
330
2
100
AcDbSymbolTableRecord
100
AcDbLayerTableRecord
  2
细线层
 70
     0
 62
     4
  6
Continuous
370
    15
390
F
  0
LAYER
  5
4A
330
2
100
AcDbSymbolTableRecord
100
AcDbLayerTableRecord
  2
中心线层
 70
     0
 62
     1
  6
CENTERX2
370
    15
390
F
  0
LAYER
  5
4B
330
2
100
AcDbSymbolTableRecord
100
AcDbLayerTableRecord
  2
虚线层
 70
     0
 62
     6
  6
HIDDEN
370
    15
390
F
  0
LAYER
  5
4C
330
2
100
AcDbSymbolTableRecord
100
AcDbLayerTableRecord
  2
剖面线层
 70
     0
 62
     2
  6
Continuous
370
    15
390
F
  0
LAYER
  5
4D
330
2
100
AcDbSymbolTableRecord
100
AcDbLayerTableRecord
  2
文字层
 70
     0
 62
     3
  6
Continuous
370
    15
390
F
  0
LAYER
  5
4E
330
2
100
AcDbSymbolTableRecord
100
AcDbLayerTableRecord
  2
标注层
 70
     0
 62
     4
  6
Continuous
370
    15
390
F
  0
LAYER
  5
4F
330
2
100
AcDbSymbolTableRecord
100
AcDbLayerTableRecord
  2
符号标注层
 70
     0
 62
    31
  6
Continuous
370
    15
390
F
  0
LAYER
  5
50
330
2
100
AcDbSymbolTableRecord
100
AcDbLayerTableRecord
  2
双点划线层
 70
     0
 62
     6
  6
PHANTOM
370
    15
390
F
  0
ENDTAB
  0
TABLE
  2
STYLE
  5
3
330
0
100
AcDbSymbolTable
 70
     7
  0
STYLE
  5
11
330
3
100
AcDbSymbolTableRecord
100
AcDbTextStyleTableRecord
  2
Standard
 70
     0
 40
0.0
 41
1.0
 50
0.0
 71
     0
 42
3.5
  3
txt
  4

  0
STYLE
  5
A4
330
3
100
AcDbSymbolTableRecord
100
AcDbTextStyleTableRecord
  2
SLDTEXTSTYLE0
 70
     0
 40
0.0
 41
0.7
 50
0.0
 71
     0
 42
0.2
  3
TXT
  4

  0
STYLE
  5
C1
330
3
100
AcDbSymbolTableRecord
100
AcDbTextStyleTableRecord
  2
SLDTEXTSTYLE1
 70
     0
 40
0.0
 41
0.7
 50
0.0
 71
     0
 42
0.2
  3
TXT
  4
bigfont
  0
STYLE
  5
C7
330
3
100
AcDbSymbolTableRecord
100
AcDbTextStyleTableRecord
  2
SLDTEXTSTYLE2
 70
     0
 40
0.0
 41
0.6
 50
0.0
 71
     0
 42
0.2
  3
TXT
  4
bigfont
  0
STYLE
  5
CC
330
3
100
AcDbSymbolTableRecord
100
AcDbTextStyleTableRecord
  2
SLDTEXTSTYLE3
 70
     0
 40
0.0
 41
0.6142857143
 50
0.0
 71
     0
 42
0.2
  3
TXT
  4
bigfont
  0
STYLE
  5
CE
330
3
100
AcDbSymbolTableRecord
100
AcDbTextStyleTableRecord
  2
SLDTEXTSTYLE4
 70
     0
 40
0.0
 41
0.62
 50
0.0
 71
     0
 42
0.2
  3
TXT
  4
bigfont
  0
STYLE
  5
D8
330
3
100
AcDbSymbolTableRecord
100
AcDbTextStyleTableRecord
  2
SLDTEXTSTYLE5
 70
     0
 40
0.0
 41
0.5666666667
 50
0.0
 71
     0
 42
0.2
  3
TXT
  4
bigfont
  0
ENDTAB
  0
TABLE
  2
VIEW
  5
6
330
0
100
AcDbSymbolTable
 70
     0
  0
ENDTAB
  0
TABLE
  2
UCS
  5
7
330
0
100
AcDbSymbolTable
 70
     0
  0
ENDTAB
  0
TABLE
  2
APPID
  5
9
330
0
100
AcDbSymbolTable
 70
     1
  0
APPID
  5
12
330
9
100
AcDbSymbolTableRecord
100
AcDbRegAppTableRecord
  2
ACAD
 70
     0
  0
ENDTAB
  0
TABLE
  2
DIMSTYLE
  5
A
330
0
100
AcDbSymbolTable
 70
     2
100
AcDbDimStyleTable
  0
DIMSTYLE
105
27
330
A
100
AcDbSymbolTableRecord
100
AcDbDimStyleTableRecord
  2
ISO-25
 70
     0
 41
2.5
 42
0.625
 43
3.75
 44
1.25
 73
     0
 74
     0
 77
     1
 78
     8
140
2.5
141
2.5
143
0.0393700787
147
0.625
171
     3
172
     1
178
     0
271
     2
272
     2
274
     3
278
    44
283
     0
284
     8
340
11
  0
DIMSTYLE
105
10F
102
{ACAD_REACTORS
330
10E
102
}
330
A
100
AcDbSymbolTableRecord
100
AcDbDimStyleTableRecord
  2
SLDDIMSTYLE0
 70
     0
 41
4.08
 44
0.0
 45
0.000000001
 73
     0
 74
     0
 77
     2
 78
    12
 79
     3
140
3.5
147
0.875
173
     1
178
     0
271
     2
272
     2
276
     2
284
    12
340
A4
  0
ENDTAB
  0
TABLE
  2
BLOCK_RECORD
  5
1
330
0
100
AcDbSymbolTable
 70
    24
  0
BLOCK_RECORD
  5
1F
330
1
100
AcDbSymbolTableRecord
100
AcDbBlockTableRecord
  2
*Model_Space
340
22
  0
BLOCK_RECORD
  5
1B
330
1
100
AcDbSymbolTableRecord
100
AcDbBlockTableRecord
  2
*Paper_Space
340
1E
  0
BLOCK_RECORD
  5
23
330
1
100
AcDbSymbolTableRecord
100
AcDbBlockTableRecord
  2
*Paper_Space0
340
26
  0
BLOCK_RECORD
  5
110
330
1
100
AcDbSymbolTableRecord
100
AcDbBlockTableRecord
  2
_D
340
0
  0
BLOCK_RECORD
  5
119
330
1
100
AcDbSymbolTableRecord
100
AcDbBlockTableRecord
  2
SW_CENTERMARKSYMBOL_0
340
0
102
{BLKREFS
331
124
102
}
  0
BLOCK_RECORD
  5
125
330
1
100
AcDbSymbolTableRecord
100
AcDbBlockTableRecord
  2
SW_CENTERMARKSYMBOL_1
340
0
102
{BLKREFS
331
130
102
}
  0
BLOCK_RECORD
  5
131
330
1
100
AcDbSymbolTableRecord
100
AcDbBlockTableRecord
  2
SW_CENTERMARKSYMBOL_2
340
0
102
{BLKREFS
331
13C
102
}
  0
BLOCK_RECORD
  5
13D
330
1
100
AcDbSymbolTableRecord
100
AcDbBlockTableRecord
  2
SW_CENTERMARKSYMBOL_3
340
0
102
{BLKREFS
331
148
102
}
  0
BLOCK_RECORD
  5
149
330
1
100
AcDbSymbolTableRecord
100
AcDbBlockTableRecord
  2
SW_CENTERMARKSYMBOL_4
340
0
102
{BLKREFS
331
154
102
}
  0
BLOCK_RECORD
  5
155
330
1
100
AcDbSymbolTableRecord
100
AcDbBlockTableRecord
  2
SW_CENTERMARKSYMBOL_5
340
0
102
{BLKREFS
331
160
102
}
  0
BLOCK_RECORD
  5
161
330
1
100
AcDbSymbolTableRecord
100
AcDbBlockTableRecord
  2
SW_CENTERMARKSYMBOL_6
340
0
102
{BLKREFS
331
16C
102
}
  0
BLOCK_RECORD
  5
16D
330
1
100
AcDbSymbolTableRecord
100
AcDbBlockTableRecord
  2
SW_CENTERMARKSYMBOL_7
340
0
102
{BLKREFS
331
178
102
}
  0
BLOCK_RECORD
  5
179
330
1
100
AcDbSymbolTableRecord
100
AcDbBlockTableRecord
  2
SW_CENTERMARKSYMBOL_8
340
0
102
{BLKREFS
331
184
102
}
  0
BLOCK_RECORD
  5
185
330
1
100
AcDbSymbolTableRecord
100
AcDbBlockTableRecord
  2
SW_CENTERMARKSYMBOL_9
340
0
102
{BLKREFS
331
190
102
}
  0
BLOCK_RECORD
  5
191
330
1
100
AcDbSymbolTableRecord
100
AcDbBlockTableRecord
  2
SW_CENTERMARKSYMBOL_10
340
0
102
{BLKREFS
331
19C
102
}
  0
BLOCK_RECORD
  5
19D
330
1
100
AcDbSymbolTableRecord
100
AcDbBlockTableRecord
  2
SW_CENTERMARKSYMBOL_11
340
0
102
{BLKREFS
331
1A8
102
}
  0
BLOCK_RECORD
  5
1A9
330
1
100
AcDbSymbolTableRecord
100
AcDbBlockTableRecord
  2
SW_CENTERMARKSYMBOL_12
340
0
102
{BLKREFS
331
1B4
102
}
  0
BLOCK_RECORD
  5
1B5
330
1
100
AcDbSymbolTableRecord
100
AcDbBlockTableRecord
  2
SW_CENTERMARKSYMBOL_13
340
0
102
{BLKREFS
331
1C0
102
}
  0
BLOCK_RECORD
  5
1C1
330
1
100
AcDbSymbolTableRecord
100
AcDbBlockTableRecord
  2
SW_CENTERMARKSYMBOL_14
340
0
102
{BLKREFS
331
1CC
102
}
  0
BLOCK_RECORD
  5
1CD
330
1
100
AcDbSymbolTableRecord
100
AcDbBlockTableRecord
  2
SW_CENTERMARKSYMBOL_15
340
0
102
{BLKREFS
331
1D8
102
}
  0
BLOCK_RECORD
  5
1D9
330
1
100
AcDbSymbolTableRecord
100
AcDbBlockTableRecord
  2
SW_CENTERMARKSYMBOL_16
340
0
102
{BLKREFS
331
1E4
102
}
  0
BLOCK_RECORD
  5
1E5
330
1
100
AcDbSymbolTableRecord
100
AcDbBlockTableRecord
  2
SW_CENTERMARKSYMBOL_17
340
0
102
{BLKREFS
331
1F0
102
}
  0
BLOCK_RECORD
  5
1F1
330
1
100
AcDbSymbolTableRecord
100
AcDbBlockTableRecord
  2
SW_CENTERMARKSYMBOL_18
340
0
102
{BLKREFS
331
1FC
102
}
  0
BLOCK_RECORD
  5
1FD
330
1
100
AcDbSymbolTableRecord
100
AcDbBlockTableRecord
  2
SW_CENTERMARKSYMBOL_19
340
0
102
{BLKREFS
331
208
102
}
  0
BLOCK_RECORD
  5
209
330
1
100
AcDbSymbolTableRecord
100
AcDbBlockTableRecord
  2
SW_CENTERMARKSYMBOL_20
340
0
102
{BLKREFS
331
214
102
}
  0
BLOCK_RECORD
  5
215
330
1
100
AcDbSymbolTableRecord
100
AcDbBlockTableRecord
  2
SW_CENTERMARKSYMBOL_21
340
0
102
{BLKREFS
331
220
102
}
  0
ENDTAB
  0
ENDSEC
  0
SECTION
  2
BLOCKS
  0
BLOCK
  5
20
330
1F
100
AcDbEntity
  8
0
100
AcDbBlockBegin
  2
*Model_Space
 70
     0
 10
0.0
 20
0.0
 30
0.0
  3
*Model_Space
  1

  0
ENDBLK
  5
21
330
1F
100
AcDbEntity
  8
0
100
AcDbBlockEnd
  0
BLOCK
  5
1C
330
1B
100
AcDbEntity
 67
     1
  8
0
100
AcDbBlockBegin
  2
*Paper_Space
 70
     0
 10
0.0
 20
0.0
 30
0.0
  3
*Paper_Space
  1

  0
ENDBLK
  5
1D
330
1B
100
AcDbEntity
 67
     1
  8
0
100
AcDbBlockEnd
  0
BLOCK
  5
24
330
23
100
AcDbEntity
  8
0
100
AcDbBlockBegin
  2
*Paper_Space0
 70
     0
 10
0.0
 20
0.0
 30
0.0
  3
*Paper_Space0
  1

  0
ENDBLK
  5
25
330
23
100
AcDbEntity
  8
0
100
AcDbBlockEnd
  0
BLOCK
  5
111
330
110
100
AcDbEntity
  8
0
100
AcDbBlockBegin
  2
_D
 70
     0
 10
0.0
 20
0.0
 30
0.0
  3
_D
  1

  0
SOLID
  5
113
330
110
100
AcDbEntity
  8
10
100
AcDbTrace
 10
512.5436363636
 20
534.2241991342
 30
0.0
 11
512.0356363636
 21
530.1441991342
 31
0.0
 12
513.0516363636
 22
530.1441991342
 32
0.0
 13
513.0516363636
 23
530.1441991342
 33
0.0
  0
SOLID
  5
114
330
110
100
AcDbEntity
  8
10
100
AcDbTrace
 10
512.5436363636
 20
439.2241991342
 30
0.0
 11
513.0516363636
 21
443.3041991342
 31
0.0
 12
512.0356363636
 22
443.3041991342
 32
0.0
 13
512.0356363636
 23
443.3041991342
 33
0.0
  0
LINE
  5
115
330
110
100
AcDbEntity
  8
10
100
AcDbLine
 10
424.5436363636
 20
534.2241991342
 30
0.0
 11
514.5436363636
 21
534.2241991342
 31
0.0
  0
LINE
  5
116
330
110
100
AcDbEntity
  8
10
100
AcDbLine
 10
432.5436363636
 20
439.2241991342
 30
0.0
 11
514.5436363636
 21
439.2241991342
 31
0.0
  0
LINE
  5
117
330
110
100
AcDbEntity
  8
10
100
AcDbLine
 10
512.5436363636
 20
534.2241991342
 30
0.0
 11
512.5436363636
 21
439.2241991342
 31
0.0
  0
MTEXT
  5
118
330
110
100
AcDbEntity
  8
10
100
AcDbMText
 10
508.0318990416
 20
470.2246573039
 30
0.9
 40
3.5
 41
0.0
 71
     1
 72
     1
  1
95
  7
SLDTEXTSTYLE0
 11
-1.414962237524464E-14
 21
1.0
 31
0.0
 73
     1
 44
1.0
  0
ENDBLK
  5
112
330
110
100
AcDbEntity
  8
0
100
AcDbBlockEnd
  0
BLOCK
  5
11A
330
119
100
AcDbEntity
  8
0
100
AcDbBlockBegin
  2
SW_CENTERMARKSYMBOL_0
 70
     0
 10
0.0
 20
0.0
 30
0.0
  3
SW_CENTERMARKSYMBOL_0
  1

  0
LINE
  5
11C
330
119
100
AcDbEntity
  8
10
 62
     0
100
AcDbLine
 10
0.0
 20
0.0
 30
0.0
 11
0.0
 21
-2.5
 31
0.0
  0
LINE
  5
11D
330
119
100
AcDbEntity
  8
10
 62
     0
100
AcDbLine
 10
0.0
 20
0.0
 30
0.0
 11
2.5
 21
0.0
 31
0.0
  0
LINE
  5
11E
330
119
100
AcDbEntity
  8
10
 62
     0
100
AcDbLine
 10
0.0
 20
0.0
 30
0.0
 11
0.0
 21
2.5
 31
0.0
  0
LINE
  5
11F
330
119
100
AcDbEntity
  8
10
 62
     0
100
AcDbLine
 10
0.0
 20
0.0
 30
0.0
 11
-2.5
 21
0.0
 31
0.0
  0
LINE
  5
120
330
119
100
AcDbEntity
  8
10
 62
     0
100
AcDbLine
 10
0.0
 20
-2.5
 30
0.0
 11
0.0
 21
-4.1
 31
0.0
  0
LINE
  5
121
330
119
100
AcDbEntity
  8
10
 62
     0
100
AcDbLine
 10
2.5
 20
0.0
 30
0.0
 11
4.1
 21
0.0
 31
0.0
  0
LINE
  5
122
330
119
100
AcDbEntity
  8
10
 62
     0
100
AcDbLine
 10
0.0
 20
2.5
 30
0.0
 11
0.0
 21
4.1
 31
0.0
  0
LINE
  5
123
330
119
100
AcDbEntity
  8
10
 62
     0
100
AcDbLine
 10
-2.5
 20
0.0
 30
0.0
 11
-4.1
 21
0.0
 31
0.0
  0
ENDBLK
  5
11B
330
119
100
AcDbEntity
  8
0
100
AcDbBlockEnd
  0
BLOCK
  5
126
330
125
100
AcDbEntity
  8
0
100
AcDbBlockBegin
  2
SW_CENTERMARKSYMBOL_1
 70
     0
 10
0.0
 20
0.0
 30
0.0
  3
SW_CENTERMARKSYMBOL_1
  1

  0
LINE
  5
128
330
125
100
AcDbEntity
  8
10
 62
     0
100
AcDbLine
 10
0.0
 20
0.0
 30
0.0
 11
0.0
 21
-2.5
 31
0.0
  0
LINE
  5
129
330
125
100
AcDbEntity
  8
10
 62
     0
100
AcDbLine
 10
0.0
 20
0.0
 30
0.0
 11
2.5
 21
0.0
 31
0.0
  0
LINE
  5
12A
330
125
100
AcDbEntity
  8
10
 62
     0
100
AcDbLine
 10
0.0
 20
0.0
 30
0.0
 11
0.0
 21
2.5
 31
0.0
  0
LINE
  5
12B
330
125
100
AcDbEntity
  8
10
 62
     0
100
AcDbLine
 10
0.0
 20
0.0
 30
0.0
 11
-2.5
 21
0.0
 31
0.0
  0
LINE
  5
12C
330
125
100
AcDbEntity
  8
10
 62
     0
100
AcDbLine
 10
0.0
 20
-2.5
 30
0.0
 11
0.0
 21
-4.1
 31
0.0
  0
LINE
  5
12D
330
125
100
AcDbEntity
  8
10
 62
     0
100
AcDbLine
 10
2.5
 20
0.0
 30
0.0
 11
4.1
 21
0.0
 31
0.0
  0
LINE
  5
12E
330
125
100
AcDbEntity
  8
10
 62
     0
100
AcDbLine
 10
0.0
 20
2.5
 30
0.0
 11
0.0
 21
4.1
 31
0.0
  0
LINE
  5
12F
330
125
100
AcDbEntity
  8
10
 62
     0
100
AcDbLine
 10
-2.5
 20
0.0
 30
0.0
 11
-4.1
 21
0.0
 31
0.0
  0
ENDBLK
  5
127
330
125
100
AcDbEntity
  8
0
100
AcDbBlockEnd
  0
BLOCK
  5
132
330
131
100
AcDbEntity
  8
0
100
AcDbBlockBegin
  2
SW_CENTERMARKSYMBOL_2
 70
     0
 10
0.0
 20
0.0
 30
0.0
  3
SW_CENTERMARKSYMBOL_2
  1

  0
LINE
  5
134
330
131
100
AcDbEntity
  8
10
 62
     0
100
AcDbLine
 10
0.0
 20
0.0
 30
0.0
 11
0.0
 21
-2.5
 31
0.0
  0
LINE
  5
135
330
131
100
AcDbEntity
  8
10
 62
     0
100
AcDbLine
 10
0.0
 20
0.0
 30
0.0
 11
2.5
 21
0.0
 31
0.0
  0
LINE
  5
136
330
131
100
AcDbEntity
  8
10
 62
     0
100
AcDbLine
 10
0.0
 20
0.0
 30
0.0
 11
0.0
 21
2.5
 31
0.0
  0
LINE
  5
137
330
131
100
AcDbEntity
  8
10
 62
     0
100
AcDbLine
 10
0.0
 20
0.0
 30
0.0
 11
-2.5
 21
0.0
 31
0.0
  0
LINE
  5
138
330
131
100
AcDbEntity
  8
10
 62
     0
100
AcDbLine
 10
0.0
 20
-2.5
 30
0.0
 11
0.0
 21
-4.1
 31
0.0
  0
LINE
  5
139
330
131
100
AcDbEntity
  8
10
 62
     0
100
AcDbLine
 10
2.5
 20
0.0
 30
0.0
 11
4.1
 21
0.0
 31
0.0
  0
LINE
  5
13A
330
131
100
AcDbEntity
  8
10
 62
     0
100
AcDbLine
 10
0.0
 20
2.5
 30
0.0
 11
0.0
 21
4.1
 31
0.0
  0
LINE
  5
13B
330
131
100
AcDbEntity
  8
10
 62
     0
100
AcDbLine
 10
-2.5
 20
0.0
 30
0.0
 11
-4.1
 21
0.0
 31
0.0
  0
ENDBLK
  5
133
330
131
100
AcDbEntity
  8
0
100
AcDbBlockEnd
  0
BLOCK
  5
13E
330
13D
100
AcDbEntity
  8
0
100
AcDbBlockBegin
  2
SW_CENTERMARKSYMBOL_3
 70
     0
 10
0.0
 20
0.0
 30
0.0
  3
SW_CENTERMARKSYMBOL_3
  1

  0
LINE
  5
140
330
13D
100
AcDbEntity
  8
10
 62
     0
100
AcDbLine
 10
0.0
 20
0.0
 30
0.0
 11
0.0
 21
-2.5
 31
0.0
  0
LINE
  5
141
330
13D
100
AcDbEntity
  8
10
 62
     0
100
AcDbLine
 10
0.0
 20
0.0
 30
0.0
 11
2.5
 21
0.0
 31
0.0
  0
LINE
  5
142
330
13D
100
AcDbEntity
  8
10
 62
     0
100
AcDbLine
 10
0.0
 20
0.0
 30
0.0
 11
0.0
 21
2.5
 31
0.0
  0
LINE
  5
143
330
13D
100
AcDbEntity
  8
10
 62
     0
100
AcDbLine
 10
0.0
 20
0.0
 30
0.0
 11
-2.5
 21
0.0
 31
0.0
  0
LINE
  5
144
330
13D
100
AcDbEntity
  8
10
 62
     0
100
AcDbLine
 10
0.0
 20
-2.5
 30
0.0
 11
0.0
 21
-4.1
 31
0.0
  0
LINE
  5
145
330
13D
100
AcDbEntity
  8
10
 62
     0
100
AcDbLine
 10
2.5
 20
0.0
 30
0.0
 11
4.1
 21
0.0
 31
0.0
  0
LINE
  5
146
330
13D
100
AcDbEntity
  8
10
 62
     0
100
AcDbLine
 10
0.0
 20
2.5
 30
0.0
 11
0.0
 21
4.1
 31
0.0
  0
LINE
  5
147
330
13D
100
AcDbEntity
  8
10
 62
     0
100
AcDbLine
 10
-2.5
 20
0.0
 30
0.0
 11
-4.1
 21
0.0
 31
0.0
  0
ENDBLK
  5
13F
330
13D
100
AcDbEntity
  8
0
100
AcDbBlockEnd
  0
BLOCK
  5
14A
330
149
100
AcDbEntity
  8
0
100
AcDbBlockBegin
  2
SW_CENTERMARKSYMBOL_4
 70
     0
 10
0.0
 20
0.0
 30
0.0
  3
SW_CENTERMARKSYMBOL_4
  1

  0
LINE
  5
14C
330
149
100
AcDbEntity
  8
10
 62
     0
100
AcDbLine
 10
0.0
 20
0.0
 30
0.0
 11
0.0
 21
-2.5
 31
0.0
  0
LINE
  5
14D
330
149
100
AcDbEntity
  8
10
 62
     0
100
AcDbLine
 10
0.0
 20
0.0
 30
0.0
 11
2.5
 21
0.0
 31
0.0
  0
LINE
  5
14E
330
149
100
AcDbEntity
  8
10
 62
     0
100
AcDbLine
 10
0.0
 20
0.0
 30
0.0
 11
0.0
 21
2.5
 31
0.0
  0
LINE
  5
14F
330
149
100
AcDbEntity
  8
10
 62
     0
100
AcDbLine
 10
0.0
 20
0.0
 30
0.0
 11
-2.5
 21
0.0
 31
0.0
  0
LINE
  5
150
330
149
100
AcDbEntity
  8
10
 62
     0
100
AcDbLine
 10
0.0
 20
-5.0
 30
0.0
 11
0.0
 21
-5.5
 31
0.0
  0
LINE
  5
151
330
149
100
AcDbEntity
  8
10
 62
     0
100
AcDbLine
 10
5.0
 20
0.0
 30
0.0
 11
5.5
 21
0.0
 31
0.0
  0
LINE
  5
152
330
149
100
AcDbEntity
  8
10
 62
     0
100
AcDbLine
 10
0.0
 20
5.0
 30
0.0
 11
0.0
 21
5.5
 31
0.0
  0
LINE
  5
153
330
149
100
AcDbEntity
  8
10
 62
     0
100
AcDbLine
 10
-5.0
 20
0.0
 30
0.0
 11
-5.5
 21
0.0
 31
0.0
  0
ENDBLK
  5
14B
330
149
100
AcDbEntity
  8
0
100
AcDbBlockEnd
  0
BLOCK
  5
156
330
155
100
AcDbEntity
  8
0
100
AcDbBlockBegin
  2
SW_CENTERMARKSYMBOL_5
 70
     0
 10
0.0
 20
0.0
 30
0.0
  3
SW_CENTERMARKSYMBOL_5
  1

  0
LINE
  5
158
330
155
100
AcDbEntity
  8
10
 62
     0
100
AcDbLine
 10
0.0
 20
0.0
 30
0.0
 11
0.0
 21
-2.5
 31
0.0
  0
LINE
  5
159
330
155
100
AcDbEntity
  8
10
 62
     0
100
AcDbLine
 10
0.0
 20
0.0
 30
0.0
 11
2.5
 21
0.0
 31
0.0
  0
LINE
  5
15A
330
155
100
AcDbEntity
  8
10
 62
     0
100
AcDbLine
 10
0.0
 20
0.0
 30
0.0
 11
0.0
 21
2.5
 31
0.0
  0
LINE
  5
15B
330
155
100
AcDbEntity
  8
10
 62
     0
100
AcDbLine
 10
0.0
 20
0.0
 30
0.0
 11
-2.5
 21
0.0
 31
0.0
  0
LINE
  5
15C
330
155
100
AcDbEntity
  8
10
 62
     0
100
AcDbLine
 10
0.0
 20
-5.0
 30
0.0
 11
0.0
 21
-5.5
 31
0.0
  0
LINE
  5
15D
330
155
100
AcDbEntity
  8
10
 62
     0
100
AcDbLine
 10
5.0
 20
0.0
 30
0.0
 11
5.5
 21
0.0
 31
0.0
  0
LINE
  5
15E
330
155
100
AcDbEntity
  8
10
 62
     0
100
AcDbLine
 10
0.0
 20
5.0
 30
0.0
 11
0.0
 21
5.5
 31
0.0
  0
LINE
  5
15F
330
155
100
AcDbEntity
  8
10
 62
     0
100
AcDbLine
 10
-5.0
 20
0.0
 30
0.0
 11
-5.5
 21
0.0
 31
0.0
  0
ENDBLK
  5
157
330
155
100
AcDbEntity
  8
0
100
AcDbBlockEnd
  0
BLOCK
  5
162
330
161
100
AcDbEntity
  8
0
100
AcDbBlockBegin
  2
SW_CENTERMARKSYMBOL_6
 70
     0
 10
0.0
 20
0.0
 30
0.0
  3
SW_CENTERMARKSYMBOL_6
  1

  0
LINE
  5
164
330
161
100
AcDbEntity
  8
10
 62
     0
100
AcDbLine
 10
0.0
 20
0.0
 30
0.0
 11
0.0
 21
-2.5
 31
0.0
  0
LINE
  5
165
330
161
100
AcDbEntity
  8
10
 62
     0
100
AcDbLine
 10
0.0
 20
0.0
 30
0.0
 11
2.5
 21
0.0
 31
0.0
  0
LINE
  5
166
330
161
100
AcDbEntity
  8
10
 62
     0
100
AcDbLine
 10
0.0
 20
0.0
 30
0.0
 11
0.0
 21
2.5
 31
0.0
  0
LINE
  5
167
330
161
100
AcDbEntity
  8
10
 62
     0
100
AcDbLine
 10
0.0
 20
0.0
 30
0.0
 11
-2.5
 21
0.0
 31
0.0
  0
LINE
  5
168
330
161
100
AcDbEntity
  8
10
 62
     0
100
AcDbLine
 10
0.0
 20
-5.0
 30
0.0
 11
0.0
 21
-5.5
 31
0.0
  0
LINE
  5
169
330
161
100
AcDbEntity
  8
10
 62
     0
100
AcDbLine
 10
5.0
 20
0.0
 30
0.0
 11
5.5
 21
0.0
 31
0.0
  0
LINE
  5
16A
330
161
100
AcDbEntity
  8
10
 62
     0
100
AcDbLine
 10
0.0
 20
5.0
 30
0.0
 11
0.0
 21
5.5
 31
0.0
  0
LINE
  5
16B
330
161
100
AcDbEntity
  8
10
 62
     0
100
AcDbLine
 10
-5.0
 20
0.0
 30
0.0
 11
-5.5
 21
0.0
 31
0.0
  0
ENDBLK
  5
163
330
161
100
AcDbEntity
  8
0
100
AcDbBlockEnd
  0
BLOCK
  5
16E
330
16D
100
AcDbEntity
  8
0
100
AcDbBlockBegin
  2
SW_CENTERMARKSYMBOL_7
 70
     0
 10
0.0
 20
0.0
 30
0.0
  3
SW_CENTERMARKSYMBOL_7
  1

  0
LINE
  5
170
330
16D
100
AcDbEntity
  8
10
 62
     0
100
AcDbLine
 10
0.0
 20
0.0
 30
0.0
 11
0.0
 21
-2.5
 31
0.0
  0
LINE
  5
171
330
16D
100
AcDbEntity
  8
10
 62
     0
100
AcDbLine
 10
0.0
 20
0.0
 30
0.0
 11
2.5
 21
0.0
 31
0.0
  0
LINE
  5
172
330
16D
100
AcDbEntity
  8
10
 62
     0
100
AcDbLine
 10
0.0
 20
0.0
 30
0.0
 11
0.0
 21
2.5
 31
0.0
  0
LINE
  5
173
330
16D
100
AcDbEntity
  8
10
 62
     0
100
AcDbLine
 10
0.0
 20
0.0
 30
0.0
 11
-2.5
 21
0.0
 31
0.0
  0
LINE
  5
174
330
16D
100
AcDbEntity
  8
10
 62
     0
100
AcDbLine
 10
0.0
 20
-5.0
 30
0.0
 11
0.0
 21
-8.25
 31
0.0
  0
LINE
  5
175
330
16D
100
AcDbEntity
  8
10
 62
     0
100
AcDbLine
 10
5.0
 20
0.0
 30
0.0
 11
8.25
 21
0.0
 31
0.0
  0
LINE
  5
176
330
16D
100
AcDbEntity
  8
10
 62
     0
100
AcDbLine
 10
0.0
 20
5.0
 30
0.0
 11
0.0
 21
8.25
 31
0.0
  0
LINE
  5
177
330
16D
100
AcDbEntity
  8
10
 62
     0
100
AcDbLine
 10
-5.0
 20
0.0
 30
0.0
 11
-8.25
 21
0.0
 31
0.0
  0
ENDBLK
  5
16F
330
16D
100
AcDbEntity
  8
0
100
AcDbBlockEnd
  0
BLOCK
  5
17A
330
179
100
AcDbEntity
  8
0
100
AcDbBlockBegin
  2
SW_CENTERMARKSYMBOL_8
 70
     0
 10
0.0
 20
0.0
 30
0.0
  3
SW_CENTERMARKSYMBOL_8
  1

  0
LINE
  5
17C
330
179
100
AcDbEntity
  8
10
 62
     0
100
AcDbLine
 10
0.0
 20
0.0
 30
0.0
 11
0.0
 21
-2.5
 31
0.0
  0
LINE
  5
17D
330
179
100
AcDbEntity
  8
10
 62
     0
100
AcDbLine
 10
0.0
 20
0.0
 30
0.0
 11
2.5
 21
0.0
 31
0.0
  0
LINE
  5
17E
330
179
100
AcDbEntity
  8
10
 62
     0
100
AcDbLine
 10
0.0
 20
0.0
 30
0.0
 11
0.0
 21
2.5
 31
0.0
  0
LINE
  5
17F
330
179
100
AcDbEntity
  8
10
 62
     0
100
AcDbLine
 10
0.0
 20
0.0
 30
0.0
 11
-2.5
 21
0.0
 31
0.0
  0
LINE
  5
180
330
179
100
AcDbEntity
  8
10
 62
     0
100
AcDbLine
 10
0.0
 20
-5.0
 30
0.0
 11
0.0
 21
-8.05
 31
0.0
  0
LINE
  5
181
330
179
100
AcDbEntity
  8
10
 62
     0
100
AcDbLine
 10
5.0
 20
0.0
 30
0.0
 11
8.05
 21
0.0
 31
0.0
  0
LINE
  5
182
330
179
100
AcDbEntity
  8
10
 62
     0
100
AcDbLine
 10
0.0
 20
5.0
 30
0.0
 11
0.0
 21
8.05
 31
0.0
  0
LINE
  5
183
330
179
100
AcDbEntity
  8
10
 62
     0
100
AcDbLine
 10
-5.0
 20
0.0
 30
0.0
 11
-8.05
 21
0.0
 31
0.0
  0
ENDBLK
  5
17B
330
179
100
AcDbEntity
  8
0
100
AcDbBlockEnd
  0
BLOCK
  5
186
330
185
100
AcDbEntity
  8
0
100
AcDbBlockBegin
  2
SW_CENTERMARKSYMBOL_9
 70
     0
 10
0.0
 20
0.0
 30
0.0
  3
SW_CENTERMARKSYMBOL_9
  1

  0
LINE
  5
188
330
185
100
AcDbEntity
  8
10
 62
     0
100
AcDbLine
 10
0.0
 20
0.0
 30
0.0
 11
0.0
 21
-2.5
 31
0.0
  0
LINE
  5
189
330
185
100
AcDbEntity
  8
10
 62
     0
100
AcDbLine
 10
0.0
 20
0.0
 30
0.0
 11
2.5
 21
0.0
 31
0.0
  0
LINE
  5
18A
330
185
100
AcDbEntity
  8
10
 62
     0
100
AcDbLine
 10
0.0
 20
0.0
 30
0.0
 11
0.0
 21
2.5
 31
0.0
  0
LINE
  5
18B
330
185
100
AcDbEntity
  8
10
 62
     0
100
AcDbLine
 10
0.0
 20
0.0
 30
0.0
 11
-2.5
 21
0.0
 31
0.0
  0
LINE
  5
18C
330
185
100
AcDbEntity
  8
10
 62
     0
100
AcDbLine
 10
0.0
 20
-5.0
 30
0.0
 11
0.0
 21
-8.25
 31
0.0
  0
LINE
  5
18D
330
185
100
AcDbEntity
  8
10
 62
     0
100
AcDbLine
 10
5.0
 20
0.0
 30
0.0
 11
8.25
 21
0.0
 31
0.0
  0
LINE
  5
18E
330
185
100
AcDbEntity
  8
10
 62
     0
100
AcDbLine
 10
0.0
 20
5.0
 30
0.0
 11
0.0
 21
8.25
 31
0.0
  0
LINE
  5
18F
330
185
100
AcDbEntity
  8
10
 62
     0
100
AcDbLine
 10
-5.0
 20
0.0
 30
0.0
 11
-8.25
 21
0.0
 31
0.0
  0
ENDBLK
  5
187
330
185
100
AcDbEntity
  8
0
100
AcDbBlockEnd
  0
BLOCK
  5
192
330
191
100
AcDbEntity
  8
0
100
AcDbBlockBegin
  2
SW_CENTERMARKSYMBOL_10
 70
     0
 10
0.0
 20
0.0
 30
0.0
  3
SW_CENTERMARKSYMBOL_10
  1

  0
LINE
  5
194
330
191
100
AcDbEntity
  8
10
 62
     0
100
AcDbLine
 10
0.0
 20
0.0
 30
0.0
 11
0.0
 21
-2.5
 31
0.0
  0
LINE
  5
195
330
191
100
AcDbEntity
  8
10
 62
     0
100
AcDbLine
 10
0.0
 20
0.0
 30
0.0
 11
2.5
 21
0.0
 31
0.0
  0
LINE
  5
196
330
191
100
AcDbEntity
  8
10
 62
     0
100
AcDbLine
 10
0.0
 20
0.0
 30
0.0
 11
0.0
 21
2.5
 31
0.0
  0
LINE
  5
197
330
191
100
AcDbEntity
  8
10
 62
     0
100
AcDbLine
 10
0.0
 20
0.0
 30
0.0
 11
-2.5
 21
0.0
 31
0.0
  0
LINE
  5
198
330
191
100
AcDbEntity
  8
10
 62
     0
100
AcDbLine
 10
0.0
 20
-5.0
 30
0.0
 11
0.0
 21
-8.5
 31
0.0
  0
LINE
  5
199
330
191
100
AcDbEntity
  8
10
 62
     0
100
AcDbLine
 10
5.0
 20
0.0
 30
0.0
 11
8.5
 21
0.0
 31
0.0
  0
LINE
  5
19A
330
191
100
AcDbEntity
  8
10
 62
     0
100
AcDbLine
 10
0.0
 20
5.0
 30
0.0
 11
0.0
 21
8.5
 31
0.0
  0
LINE
  5
19B
330
191
100
AcDbEntity
  8
10
 62
     0
100
AcDbLine
 10
-5.0
 20
0.0
 30
0.0
 11
-8.5
 21
0.0
 31
0.0
  0
ENDBLK
  5
193
330
191
100
AcDbEntity
  8
0
100
AcDbBlockEnd
  0
BLOCK
  5
19E
330
19D
100
AcDbEntity
  8
0
100
AcDbBlockBegin
  2
SW_CENTERMARKSYMBOL_11
 70
     0
 10
0.0
 20
0.0
 30
0.0
  3
SW_CENTERMARKSYMBOL_11
  1

  0
LINE
  5
1A0
330
19D
100
AcDbEntity
  8
10
 62
     0
100
AcDbLine
 10
0.0
 20
0.0
 30
0.0
 11
0.0
 21
-2.5
 31
0.0
  0
LINE
  5
1A1
330
19D
100
AcDbEntity
  8
10
 62
     0
100
AcDbLine
 10
0.0
 20
0.0
 30
0.0
 11
2.5
 21
0.0
 31
0.0
  0
LINE
  5
1A2
330
19D
100
AcDbEntity
  8
10
 62
     0
100
AcDbLine
 10
0.0
 20
0.0
 30
0.0
 11
0.0
 21
2.5
 31
0.0
  0
LINE
  5
1A3
330
19D
100
AcDbEntity
  8
10
 62
     0
100
AcDbLine
 10
0.0
 20
0.0
 30
0.0
 11
-2.5
 21
0.0
 31
0.0
  0
LINE
  5
1A4
330
19D
100
AcDbEntity
  8
10
 62
     0
100
AcDbLine
 10
0.0
 20
-5.0
 30
0.0
 11
0.0
 21
-8.05
 31
0.0
  0
LINE
  5
1A5
330
19D
100
AcDbEntity
  8
10
 62
     0
100
AcDbLine
 10
5.0
 20
0.0
 30
0.0
 11
8.05
 21
0.0
 31
0.0
  0
LINE
  5
1A6
330
19D
100
AcDbEntity
  8
10
 62
     0
100
AcDbLine
 10
0.0
 20
5.0
 30
0.0
 11
0.0
 21
8.05
 31
0.0
  0
LINE
  5
1A7
330
19D
100
AcDbEntity
  8
10
 62
     0
100
AcDbLine
 10
-5.0
 20
0.0
 30
0.0
 11
-8.05
 21
0.0
 31
0.0
  0
ENDBLK
  5
19F
330
19D
100
AcDbEntity
  8
0
100
AcDbBlockEnd
  0
BLOCK
  5
1AA
330
1A9
100
AcDbEntity
  8
0
100
AcDbBlockBegin
  2
SW_CENTERMARKSYMBOL_12
 70
     0
 10
0.0
 20
0.0
 30
0.0
  3
SW_CENTERMARKSYMBOL_12
  1

  0
LINE
  5
1AC
330
1A9
100
AcDbEntity
  8
10
 62
     0
100
AcDbLine
 10
0.0
 20
0.0
 30
0.0
 11
0.0
 21
-2.5
 31
0.0
  0
LINE
  5
1AD
330
1A9
100
AcDbEntity
  8
10
 62
     0
100
AcDbLine
 10
0.0
 20
0.0
 30
0.0
 11
2.5
 21
0.0
 31
0.0
  0
LINE
  5
1AE
330
1A9
100
AcDbEntity
  8
10
 62
     0
100
AcDbLine
 10
0.0
 20
0.0
 30
0.0
 11
0.0
 21
2.5
 31
0.0
  0
LINE
  5
1AF
330
1A9
100
AcDbEntity
  8
10
 62
     0
100
AcDbLine
 10
0.0
 20
0.0
 30
0.0
 11
-2.5
 21
0.0
 31
0.0
  0
LINE
  5
1B0
330
1A9
100
AcDbEntity
  8
10
 62
     0
100
AcDbLine
 10
0.0
 20
-5.0
 30
0.0
 11
0.0
 21
-7.4
 31
0.0
  0
LINE
  5
1B1
330
1A9
100
AcDbEntity
  8
10
 62
     0
100
AcDbLine
 10
5.0
 20
0.0
 30
0.0
 11
7.4
 21
0.0
 31
0.0
  0
LINE
  5
1B2
330
1A9
100
AcDbEntity
  8
10
 62
     0
100
AcDbLine
 10
0.0
 20
5.0
 30
0.0
 11
0.0
 21
7.4
 31
0.0
  0
LINE
  5
1B3
330
1A9
100
AcDbEntity
  8
10
 62
     0
100
AcDbLine
 10
-5.0
 20
0.0
 30
0.0
 11
-7.4
 21
0.0
 31
0.0
  0
ENDBLK
  5
1AB
330
1A9
100
AcDbEntity
  8
0
100
AcDbBlockEnd
  0
BLOCK
  5
1B6
330
1B5
100
AcDbEntity
  8
0
100
AcDbBlockBegin
  2
SW_CENTERMARKSYMBOL_13
 70
     0
 10
0.0
 20
0.0
 30
0.0
  3
SW_CENTERMARKSYMBOL_13
  1

  0
LINE
  5
1B8
330
1B5
100
AcDbEntity
  8
10
 62
     0
100
AcDbLine
 10
0.0
 20
0.0
 30
0.0
 11
0.0
 21
-2.5
 31
0.0
  0
LINE
  5
1B9
330
1B5
100
AcDbEntity
  8
10
 62
     0
100
AcDbLine
 10
0.0
 20
0.0
 30
0.0
 11
2.5
 21
0.0
 31
0.0
  0
LINE
  5
1BA
330
1B5
100
AcDbEntity
  8
10
 62
     0
100
AcDbLine
 10
0.0
 20
0.0
 30
0.0
 11
0.0
 21
2.5
 31
0.0
  0
LINE
  5
1BB
330
1B5
100
AcDbEntity
  8
10
 62
     0
100
AcDbLine
 10
0.0
 20
0.0
 30
0.0
 11
-2.5
 21
0.0
 31
0.0
  0
LINE
  5
1BC
330
1B5
100
AcDbEntity
  8
10
 62
     0
100
AcDbLine
 10
0.0
 20
-5.0
 30
0.0
 11
0.0
 21
-7.4
 31
0.0
  0
LINE
  5
1BD
330
1B5
100
AcDbEntity
  8
10
 62
     0
100
AcDbLine
 10
5.0
 20
0.0
 30
0.0
 11
7.4
 21
0.0
 31
0.0
  0
LINE
  5
1BE
330
1B5
100
AcDbEntity
  8
10
 62
     0
100
AcDbLine
 10
0.0
 20
5.0
 30
0.0
 11
0.0
 21
7.4
 31
0.0
  0
LINE
  5
1BF
330
1B5
100
AcDbEntity
  8
10
 62
     0
100
AcDbLine
 10
-5.0
 20
0.0
 30
0.0
 11
-7.4
 21
0.0
 31
0.0
  0
ENDBLK
  5
1B7
330
1B5
100
AcDbEntity
  8
0
100
AcDbBlockEnd
  0
BLOCK
  5
1C2
330
1C1
100
AcDbEntity
  8
0
100
AcDbBlockBegin
  2
SW_CENTERMARKSYMBOL_14
 70
     0
 10
0.0
 20
0.0
 30
0.0
  3
SW_CENTERMARKSYMBOL_14
  1

  0
LINE
  5
1C4
330
1C1
100
AcDbEntity
  8
10
 62
     0
100
AcDbLine
 10
0.0
 20
0.0
 30
0.0
 11
0.0
 21
-2.5
 31
0.0
  0
LINE
  5
1C5
330
1C1
100
AcDbEntity
  8
10
 62
     0
100
AcDbLine
 10
0.0
 20
0.0
 30
0.0
 11
2.5
 21
0.0
 31
0.0
  0
LINE
  5
1C6
330
1C1
100
AcDbEntity
  8
10
 62
     0
100
AcDbLine
 10
0.0
 20
0.0
 30
0.0
 11
0.0
 21
2.5
 31
0.0
  0
LINE
  5
1C7
330
1C1
100
AcDbEntity
  8
10
 62
     0
100
AcDbLine
 10
0.0
 20
0.0
 30
0.0
 11
-2.5
 21
0.0
 31
0.0
  0
LINE
  5
1C8
330
1C1
100
AcDbEntity
  8
10
 62
     0
100
AcDbLine
 10
0.0
 20
-5.0
 30
0.0
 11
0.0
 21
-8.5
 31
0.0
  0
LINE
  5
1C9
330
1C1
100
AcDbEntity
  8
10
 62
     0
100
AcDbLine
 10
5.0
 20
0.0
 30
0.0
 11
8.5
 21
0.0
 31
0.0
  0
LINE
  5
1CA
330
1C1
100
AcDbEntity
  8
10
 62
     0
100
AcDbLine
 10
0.0
 20
5.0
 30
0.0
 11
0.0
 21
8.5
 31
0.0
  0
LINE
  5
1CB
330
1C1
100
AcDbEntity
  8
10
 62
     0
100
AcDbLine
 10
-5.0
 20
0.0
 30
0.0
 11
-8.5
 21
0.0
 31
0.0
  0
ENDBLK
  5
1C3
330
1C1
100
AcDbEntity
  8
0
100
AcDbBlockEnd
  0
BLOCK
  5
1CE
330
1CD
100
AcDbEntity
  8
0
100
AcDbBlockBegin
  2
SW_CENTERMARKSYMBOL_15
 70
     0
 10
0.0
 20
0.0
 30
0.0
  3
SW_CENTERMARKSYMBOL_15
  1

  0
LINE
  5
1D0
330
1CD
100
AcDbEntity
  8
10
 62
     0
100
AcDbLine
 10
0.0
 20
0.0
 30
0.0
 11
0.0
 21
-2.5
 31
0.0
  0
LINE
  5
1D1
330
1CD
100
AcDbEntity
  8
10
 62
     0
100
AcDbLine
 10
0.0
 20
0.0
 30
0.0
 11
2.5
 21
0.0
 31
0.0
  0
LINE
  5
1D2
330
1CD
100
AcDbEntity
  8
10
 62
     0
100
AcDbLine
 10
0.0
 20
0.0
 30
0.0
 11
0.0
 21
2.5
 31
0.0
  0
LINE
  5
1D3
330
1CD
100
AcDbEntity
  8
10
 62
     0
100
AcDbLine
 10
0.0
 20
0.0
 30
0.0
 11
-2.5
 21
0.0
 31
0.0
  0
LINE
  5
1D4
330
1CD
100
AcDbEntity
  8
10
 62
     0
100
AcDbLine
 10
0.0
 20
-5.0
 30
0.0
 11
0.0
 21
-8.05
 31
0.0
  0
LINE
  5
1D5
330
1CD
100
AcDbEntity
  8
10
 62
     0
100
AcDbLine
 10
5.0
 20
0.0
 30
0.0
 11
8.05
 21
0.0
 31
0.0
  0
LINE
  5
1D6
330
1CD
100
AcDbEntity
  8
10
 62
     0
100
AcDbLine
 10
0.0
 20
5.0
 30
0.0
 11
0.0
 21
8.05
 31
0.0
  0
LINE
  5
1D7
330
1CD
100
AcDbEntity
  8
10
 62
     0
100
AcDbLine
 10
-5.0
 20
0.0
 30
0.0
 11
-8.05
 21
0.0
 31
0.0
  0
ENDBLK
  5
1CF
330
1CD
100
AcDbEntity
  8
0
100
AcDbBlockEnd
  0
BLOCK
  5
1DA
330
1D9
100
AcDbEntity
  8
0
100
AcDbBlockBegin
  2
SW_CENTERMARKSYMBOL_16
 70
     0
 10
0.0
 20
0.0
 30
0.0
  3
SW_CENTERMARKSYMBOL_16
  1

  0
LINE
  5
1DC
330
1D9
100
AcDbEntity
  8
10
 62
     0
100
AcDbLine
 10
0.0
 20
0.0
 30
0.0
 11
0.0
 21
-2.5
 31
0.0
  0
LINE
  5
1DD
330
1D9
100
AcDbEntity
  8
10
 62
     0
100
AcDbLine
 10
0.0
 20
0.0
 30
0.0
 11
2.5
 21
0.0
 31
0.0
  0
LINE
  5
1DE
330
1D9
100
AcDbEntity
  8
10
 62
     0
100
AcDbLine
 10
0.0
 20
0.0
 30
0.0
 11
0.0
 21
2.5
 31
0.0
  0
LINE
  5
1DF
330
1D9
100
AcDbEntity
  8
10
 62
     0
100
AcDbLine
 10
0.0
 20
0.0
 30
0.0
 11
-2.5
 21
0.0
 31
0.0
  0
LINE
  5
1E0
330
1D9
100
AcDbEntity
  8
10
 62
     0
100
AcDbLine
 10
0.0
 20
-5.0
 30
0.0
 11
0.0
 21
-8.05
 31
0.0
  0
LINE
  5
1E1
330
1D9
100
AcDbEntity
  8
10
 62
     0
100
AcDbLine
 10
5.0
 20
0.0
 30
0.0
 11
8.05
 21
0.0
 31
0.0
  0
LINE
  5
1E2
330
1D9
100
AcDbEntity
  8
10
 62
     0
100
AcDbLine
 10
0.0
 20
5.0
 30
0.0
 11
0.0
 21
8.05
 31
0.0
  0
LINE
  5
1E3
330
1D9
100
AcDbEntity
  8
10
 62
     0
100
AcDbLine
 10
-5.0
 20
0.0
 30
0.0
 11
-8.05
 21
0.0
 31
0.0
  0
ENDBLK
  5
1DB
330
1D9
100
AcDbEntity
  8
0
100
AcDbBlockEnd
  0
BLOCK
  5
1E6
330
1E5
100
AcDbEntity
  8
0
100
AcDbBlockBegin
  2
SW_CENTERMARKSYMBOL_17
 70
     0
 10
0.0
 20
0.0
 30
0.0
  3
SW_CENTERMARKSYMBOL_17
  1

  0
LINE
  5
1E8
330
1E5
100
AcDbEntity
  8
10
 62
     0
100
AcDbLine
 10
0.0
 20
0.0
 30
0.0
 11
0.0
 21
-2.5
 31
0.0
  0
LINE
  5
1E9
330
1E5
100
AcDbEntity
  8
10
 62
     0
100
AcDbLine
 10
0.0
 20
0.0
 30
0.0
 11
2.5
 21
0.0
 31
0.0
  0
LINE
  5
1EA
330
1E5
100
AcDbEntity
  8
10
 62
     0
100
AcDbLine
 10
0.0
 20
0.0
 30
0.0
 11
0.0
 21
2.5
 31
0.0
  0
LINE
  5
1EB
330
1E5
100
AcDbEntity
  8
10
 62
     0
100
AcDbLine
 10
0.0
 20
0.0
 30
0.0
 11
-2.5
 21
0.0
 31
0.0
  0
LINE
  5
1EC
330
1E5
100
AcDbEntity
  8
10
 62
     0
100
AcDbLine
 10
0.0
 20
-5.0
 30
0.0
 11
0.0
 21
-8.05
 31
0.0
  0
LINE
  5
1ED
330
1E5
100
AcDbEntity
  8
10
 62
     0
100
AcDbLine
 10
5.0
 20
0.0
 30
0.0
 11
8.05
 21
0.0
 31
0.0
  0
LINE
  5
1EE
330
1E5
100
AcDbEntity
  8
10
 62
     0
100
AcDbLine
 10
0.0
 20
5.0
 30
0.0
 11
0.0
 21
8.05
 31
0.0
  0
LINE
  5
1EF
330
1E5
100
AcDbEntity
  8
10
 62
     0
100
AcDbLine
 10
-5.0
 20
0.0
 30
0.0
 11
-8.05
 21
0.0
 31
0.0
  0
ENDBLK
  5
1E7
330
1E5
100
AcDbEntity
  8
0
100
AcDbBlockEnd
  0
BLOCK
  5
1F2
330
1F1
100
AcDbEntity
  8
0
100
AcDbBlockBegin
  2
SW_CENTERMARKSYMBOL_18
 70
     0
 10
0.0
 20
0.0
 30
0.0
  3
SW_CENTERMARKSYMBOL_18
  1

  0
LINE
  5
1F4
330
1F1
100
AcDbEntity
  8
10
 62
     0
100
AcDbLine
 10
0.0
 20
0.0
 30
0.0
 11
0.0
 21
-2.5
 31
0.0
  0
LINE
  5
1F5
330
1F1
100
AcDbEntity
  8
10
 62
     0
100
AcDbLine
 10
0.0
 20
0.0
 30
0.0
 11
2.5
 21
0.0
 31
0.0
  0
LINE
  5
1F6
330
1F1
100
AcDbEntity
  8
10
 62
     0
100
AcDbLine
 10
0.0
 20
0.0
 30
0.0
 11
0.0
 21
2.5
 31
0.0
  0
LINE
  5
1F7
330
1F1
100
AcDbEntity
  8
10
 62
     0
100
AcDbLine
 10
0.0
 20
0.0
 30
0.0
 11
-2.5
 21
0.0
 31
0.0
  0
LINE
  5
1F8
330
1F1
100
AcDbEntity
  8
10
 62
     0
100
AcDbLine
 10
0.0
 20
-5.0
 30
0.0
 11
0.0
 21
-8.05
 31
0.0
  0
LINE
  5
1F9
330
1F1
100
AcDbEntity
  8
10
 62
     0
100
AcDbLine
 10
5.0
 20
0.0
 30
0.0
 11
8.05
 21
0.0
 31
0.0
  0
LINE
  5
1FA
330
1F1
100
AcDbEntity
  8
10
 62
     0
100
AcDbLine
 10
0.0
 20
5.0
 30
0.0
 11
0.0
 21
8.05
 31
0.0
  0
LINE
  5
1FB
330
1F1
100
AcDbEntity
  8
10
 62
     0
100
AcDbLine
 10
-5.0
 20
0.0
 30
0.0
 11
-8.05
 21
0.0
 31
0.0
  0
ENDBLK
  5
1F3
330
1F1
100
AcDbEntity
  8
0
100
AcDbBlockEnd
  0
BLOCK
  5
1FE
330
1FD
100
AcDbEntity
  8
0
100
AcDbBlockBegin
  2
SW_CENTERMARKSYMBOL_19
 70
     0
 10
0.0
 20
0.0
 30
0.0
  3
SW_CENTERMARKSYMBOL_19
  1

  0
LINE
  5
200
330
1FD
100
AcDbEntity
  8
10
 62
     0
100
AcDbLine
 10
0.0
 20
0.0
 30
0.0
 11
0.0
 21
-2.5
 31
0.0
  0
LINE
  5
201
330
1FD
100
AcDbEntity
  8
10
 62
     0
100
AcDbLine
 10
0.0
 20
0.0
 30
0.0
 11
2.5
 21
0.0
 31
0.0
  0
LINE
  5
202
330
1FD
100
AcDbEntity
  8
10
 62
     0
100
AcDbLine
 10
0.0
 20
0.0
 30
0.0
 11
0.0
 21
2.5
 31
0.0
  0
LINE
  5
203
330
1FD
100
AcDbEntity
  8
10
 62
     0
100
AcDbLine
 10
0.0
 20
0.0
 30
0.0
 11
-2.5
 21
0.0
 31
0.0
  0
LINE
  5
204
330
1FD
100
AcDbEntity
  8
10
 62
     0
100
AcDbLine
 10
0.0
 20
-5.0
 30
0.0
 11
0.0
 21
-8.5
 31
0.0
  0
LINE
  5
205
330
1FD
100
AcDbEntity
  8
10
 62
     0
100
AcDbLine
 10
5.0
 20
0.0
 30
0.0
 11
8.5
 21
0.0
 31
0.0
  0
LINE
  5
206
330
1FD
100
AcDbEntity
  8
10
 62
     0
100
AcDbLine
 10
0.0
 20
5.0
 30
0.0
 11
0.0
 21
8.5
 31
0.0
  0
LINE
  5
207
330
1FD
100
AcDbEntity
  8
10
 62
     0
100
AcDbLine
 10
-5.0
 20
0.0
 30
0.0
 11
-8.5
 21
0.0
 31
0.0
  0
ENDBLK
  5
1FF
330
1FD
100
AcDbEntity
  8
0
100
AcDbBlockEnd
  0
BLOCK
  5
20A
330
209
100
AcDbEntity
  8
0
100
AcDbBlockBegin
  2
SW_CENTERMARKSYMBOL_20
 70
     0
 10
0.0
 20
0.0
 30
0.0
  3
SW_CENTERMARKSYMBOL_20
  1

  0
LINE
  5
20C
330
209
100
AcDbEntity
  8
10
 62
     0
100
AcDbLine
 10
0.0
 20
0.0
 30
0.0
 11
0.0
 21
-2.5
 31
0.0
  0
LINE
  5
20D
330
209
100
AcDbEntity
  8
10
 62
     0
100
AcDbLine
 10
0.0
 20
0.0
 30
0.0
 11
2.5
 21
0.0
 31
0.0
  0
LINE
  5
20E
330
209
100
AcDbEntity
  8
10
 62
     0
100
AcDbLine
 10
0.0
 20
0.0
 30
0.0
 11
0.0
 21
2.5
 31
0.0
  0
LINE
  5
20F
330
209
100
AcDbEntity
  8
10
 62
     0
100
AcDbLine
 10
0.0
 20
0.0
 30
0.0
 11
-2.5
 21
0.0
 31
0.0
  0
LINE
  5
210
330
209
100
AcDbEntity
  8
10
 62
     0
100
AcDbLine
 10
0.0
 20
-5.0
 30
0.0
 11
0.0
 21
-7.4
 31
0.0
  0
LINE
  5
211
330
209
100
AcDbEntity
  8
10
 62
     0
100
AcDbLine
 10
5.0
 20
0.0
 30
0.0
 11
7.4
 21
0.0
 31
0.0
  0
LINE
  5
212
330
209
100
AcDbEntity
  8
10
 62
     0
100
AcDbLine
 10
0.0
 20
5.0
 30
0.0
 11
0.0
 21
7.4
 31
0.0
  0
LINE
  5
213
330
209
100
AcDbEntity
  8
10
 62
     0
100
AcDbLine
 10
-5.0
 20
0.0
 30
0.0
 11
-7.4
 21
0.0
 31
0.0
  0
ENDBLK
  5
20B
330
209
100
AcDbEntity
  8
0
100
AcDbBlockEnd
  0
BLOCK
  5
216
330
215
100
AcDbEntity
  8
0
100
AcDbBlockBegin
  2
SW_CENTERMARKSYMBOL_21
 70
     0
 10
0.0
 20
0.0
 30
0.0
  3
SW_CENTERMARKSYMBOL_21
  1

  0
LINE
  5
218
330
215
100
AcDbEntity
  8
10
 62
     0
100
AcDbLine
 10
0.0
 20
0.0
 30
0.0
 11
0.0
 21
-2.5
 31
0.0
  0
LINE
  5
219
330
215
100
AcDbEntity
  8
10
 62
     0
100
AcDbLine
 10
0.0
 20
0.0
 30
0.0
 11
2.5
 21
0.0
 31
0.0
  0
LINE
  5
21A
330
215
100
AcDbEntity
  8
10
 62
     0
100
AcDbLine
 10
0.0
 20
0.0
 30
0.0
 11
0.0
 21
2.5
 31
0.0
  0
LINE
  5
21B
330
215
100
AcDbEntity
  8
10
 62
     0
100
AcDbLine
 10
0.0
 20
0.0
 30
0.0
 11
-2.5
 21
0.0
 31
0.0
  0
LINE
  5
21C
330
215
100
AcDbEntity
  8
10
 62
     0
100
AcDbLine
 10
0.0
 20
-5.0
 30
0.0
 11
0.0
 21
-8.5
 31
0.0
  0
LINE
  5
21D
330
215
100
AcDbEntity
  8
10
 62
     0
100
AcDbLine
 10
5.0
 20
0.0
 30
0.0
 11
8.5
 21
0.0
 31
0.0
  0
LINE
  5
21E
330
215
100
AcDbEntity
  8
10
 62
     0
100
AcDbLine
 10
0.0
 20
5.0
 30
0.0
 11
0.0
 21
8.5
 31
0.0
  0
LINE
  5
21F
330
215
100
AcDbEntity
  8
10
 62
     0
100
AcDbLine
 10
-5.0
 20
0.0
 30
0.0
 11
-8.5
 21
0.0
 31
0.0
  0
ENDBLK
  5
217
330
215
100
AcDbEntity
  8
0
100
AcDbBlockEnd
  0
ENDSEC
  0
SECTION
  2
ENTITIES
  0
LINE
  5
51
330
1F
100
AcDbEntity
  8
5
 62
     7
370
    15
100
AcDbLine
 10
0.0
 20
10.0
 30
0.0
 11
1179.0060979158
 21
10.0
 31
0.0
  0
LINE
  5
52
330
1F
100
AcDbEntity
  8
5
 62
     7
370
    15
100
AcDbLine
 10
1179.0060979158
 20
10.0
 30
0.0
 11
1178.4502585833
 21
831.049910878
 31
0.0
  0
LINE
  5
53
330
1F
100
AcDbEntity
  8
5
 62
     7
370
    15
100
AcDbLine
 10
1178.4502585833
 20
831.049910878
 30
0.0
 11
24.4505230281
 21
830.2686691603
 31
0.0
  0
LINE
  5
54
330
1F
100
AcDbEntity
  8
5
 62
     7
370
    15
100
AcDbLine
 10
24.4505230281
 20
830.2686691603
 30
0.0
 11
25.0063284443
 21
9.2688572965
 31
0.0
  0
LINE
  5
55
330
1F
100
AcDbEntity
  8
5
 62
     7
370
    15
100
AcDbLine
 10
25.0
 20
819.0
 30
0.0
 11
85.0
 21
819.0
 31
0.0
  0
LINE
  5
56
330
1F
100
AcDbEntity
  8
5
 62
     7
370
    15
100
AcDbLine
 10
85.0
 20
819.0
 30
0.0
 11
85.0
 21
831.0
 31
0.0
  0
LINE
  5
57
330
1F
100
AcDbEntity
  8
9
 62
     7
100
AcDbLine
 10
0.0
 20
0.0
 30
0.0
 11
1189.0
 21
0.0
 31
0.0
  0
LINE
  5
58
330
1F
100
AcDbEntity
  8
10
 62
     7
100
AcDbLine
 10
594.5
 20
0.0
 30
0.0
 11
594.5
 21
10.0
 31
0.0
  0
LINE
  5
59
330
1F
100
AcDbEntity
  8
10
 62
     7
100
AcDbLine
 10
594.5
 20
10.0
 30
0.0
 11
594.5
 21
15.0
 31
0.0
  0
LINE
  5
5A
330
1F
100
AcDbEntity
  8
9
 62
     7
100
AcDbLine
 10
1189.0
 20
0.0
 30
0.0
 11
1189.0
 21
841.0
 31
0.0
  0
LINE
  5
5B
330
1F
100
AcDbEntity
  8
10
 62
     7
100
AcDbLine
 10
1189.0
 20
420.5
 30
0.0
 11
1179.0
 21
420.5
 31
0.0
  0
LINE
  5
5C
330
1F
100
AcDbEntity
  8
10
 62
     7
100
AcDbLine
 10
1179.0
 20
420.5
 30
0.0
 11
1174.0
 21
420.5
 31
0.0
  0
LINE
  5
5D
330
1F
100
AcDbEntity
  8
9
 62
     7
100
AcDbLine
 10
1189.0
 20
841.0
 30
0.0
 11
0.0
 21
841.0
 31
0.0
  0
LINE
  5
5E
330
1F
100
AcDbEntity
  8
10
 62
     7
100
AcDbLine
 10
594.5
 20
841.0
 30
0.0
 11
594.5
 21
831.0
 31
0.0
  0
LINE
  5
5F
330
1F
100
AcDbEntity
  8
10
 62
     7
100
AcDbLine
 10
594.5
 20
831.0
 30
0.0
 11
594.5
 21
826.0
 31
0.0
  0
LINE
  5
60
330
1F
100
AcDbEntity
  8
9
 62
     7
100
AcDbLine
 10
0.0
 20
841.0
 30
0.0
 11
0.0
 21
0.0
 31
0.0
  0
LINE
  5
61
330
1F
100
AcDbEntity
  8
10
 62
     7
100
AcDbLine
 10
0.0
 20
420.5
 30
0.0
 11
25.0
 21
420.5
 31
0.0
  0
LINE
  5
62
330
1F
100
AcDbEntity
  8
10
 62
     7
100
AcDbLine
 10
25.0
 20
420.5
 30
0.0
 11
30.0
 21
420.5
 31
0.0
  0
LINE
  5
63
330
1F
100
AcDbEntity
  8
10
 62
     7
100
AcDbLine
 10
25.0
 20
700.8333333333
 30
0.0
 11
0.0
 21
700.8333333333
 31
0.0
  0
LINE
  5
64
330
1F
100
AcDbEntity
  8
10
 62
     7
100
AcDbLine
 10
25.0
 20
560.6666666667
 30
0.0
 11
0.0
 21
560.6666666667
 31
0.0
  0
LINE
  5
65
330
1F
100
AcDbEntity
  8
10
 62
     7
100
AcDbLine
 10
25.0
 20
280.3333333333
 30
0.0
 11
0.0
 21
280.3333333333
 31
0.0
  0
LINE
  5
66
330
1F
100
AcDbEntity
  8
10
 62
     7
100
AcDbLine
 10
25.0
 20
140.1666666667
 30
0.0
 11
0.0
 21
140.1666666667
 31
0.0
  0
LINE
  5
67
330
1F
100
AcDbEntity
  8
10
 62
     7
370
    15
100
AcDbLine
 10
1129.0
 20
38.0
 30
0.0
 11
1129.0
 21
10.0
 31
0.0
  0
LINE
  5
68
330
1F
100
AcDbEntity
  8
10
 62
     7
370
    15
100
AcDbLine
 10
1117.0
 20
48.0
 30
0.0
 11
1117.0
 21
28.0
 31
0.0
  0
LINE
  5
69
330
1F
100
AcDbEntity
  8
10
 62
     7
370
    15
100
AcDbLine
 10
1105.0
 20
48.0
 30
0.0
 11
1105.0
 21
28.0
 31
0.0
  0
LINE
  5
6A
330
1F
100
AcDbEntity
  8
10
 62
     7
100
AcDbLine
 10
1098.5
 20
38.0
 30
0.0
 11
1098.5
 21
28.0
 31
0.0
  0
LINE
  5
6B
330
1F
100
AcDbEntity
  8
10
 62
     7
100
AcDbLine
 10
1092.0
 20
38.0
 30
0.0
 11
1092.0
 21
28.0
 31
0.0
  0
LINE
  5
6C
330
1F
100
AcDbEntity
  8
10
 62
     7
100
AcDbLine
 10
1085.5
 20
38.0
 30
0.0
 11
1085.5
 21
28.0
 31
0.0
  0
LINE
  5
6D
330
1F
100
AcDbEntity
  8
10
 62
     7
370
    15
100
AcDbLine
 10
1079.0
 20
48.0
 30
0.0
 11
1179.0
 21
48.0
 31
0.0
  0
LINE
  5
6E
330
1F
100
AcDbEntity
  8
10
 62
     7
370
    15
100
AcDbLine
 10
1079.0
 20
28.0
 30
0.0
 11
1179.0
 21
28.0
 31
0.0
  0
LINE
  5
6F
330
1F
100
AcDbEntity
  8
10
 62
     7
370
    15
100
AcDbLine
 10
1078.999994042
 20
18.9823983628
 30
0.0
 11
1179.0000169575
 21
18.9823983628
 31
0.0
  0
LINE
  5
70
330
1F
100
AcDbEntity
  8
10
 62
     7
370
    15
100
AcDbLine
 10
1035.0
 20
66.0
 30
0.0
 11
1035.0
 21
38.0
 31
0.0
  0
LINE
  5
71
330
1F
100
AcDbEntity
  8
10
 62
     7
370
    15
100
AcDbLine
 10
1019.0
 20
66.0
 30
0.0
 11
1019.0
 21
38.0
 31
0.0
  0
LINE
  5
72
330
1F
100
AcDbEntity
  8
10
 62
     7
370
    15
100
AcDbLine
 10
1009.0
 20
66.0
 30
0.0
 11
1009.0
 21
38.0
 31
0.0
  0
LINE
  5
73
330
1F
100
AcDbEntity
  8
10
 62
     7
370
    15
100
AcDbLine
 10
1129.0
 20
66.0
 30
0.0
 11
1129.0
 21
38.0
 31
0.0
  0
LINE
  5
74
330
1F
100
AcDbEntity
  8
10
 62
     7
370
    15
100
AcDbLine
 10
1079.0
 20
66.0
 30
0.0
 11
1079.0
 21
10.0
 31
0.0
  0
LINE
  5
75
330
1F
100
AcDbEntity
  8
10
 62
     7
370
    15
100
AcDbLine
 10
1063.0
 20
66.0
 30
0.0
 11
1063.0
 21
10.0
 31
0.0
  0
LINE
  5
76
330
1F
100
AcDbEntity
  8
10
 62
     7
370
    15
100
AcDbLine
 10
1051.0
 20
66.0
 30
0.0
 11
1051.0
 21
10.0
 31
0.0
  0
LINE
  5
77
330
1F
100
AcDbEntity
  8
10
 62
     7
370
    15
100
AcDbLine
 10
1039.0
 20
38.0
 30
0.0
 11
1039.0
 21
10.0
 31
0.0
  0
LINE
  5
78
330
1F
100
AcDbEntity
  8
10
 62
     7
370
    15
100
AcDbLine
 10
1023.0
 20
38.0
 30
0.0
 11
1023.0
 21
10.0
 31
0.0
  0
LINE
  5
79
330
1F
100
AcDbEntity
  8
10
 62
     7
370
    15
100
AcDbLine
 10
1011.0
 20
38.0
 30
0.0
 11
1011.0
 21
10.0
 31
0.0
  0
LINE
  5
7A
330
1F
100
AcDbEntity
  8
10
 62
     7
100
AcDbLine
 10
999.0
 20
59.0
 30
0.0
 11
1079.0
 21
59.0
 31
0.0
  0
LINE
  5
7B
330
1F
100
AcDbEntity
  8
10
 62
     7
100
AcDbLine
 10
999.0
 20
52.0
 30
0.0
 11
1079.0
 21
52.0
 31
0.0
  0
LINE
  5
7C
330
1F
100
AcDbEntity
  8
10
 62
     7
370
    15
100
AcDbLine
 10
999.0
 20
45.0
 30
0.0
 11
1079.0
 21
45.0
 31
0.0
  0
LINE
  5
7D
330
1F
100
AcDbEntity
  8
10
 62
     7
370
    15
100
AcDbLine
 10
999.0
 20
38.0
 30
0.0
 11
1129.0
 21
38.0
 31
0.0
  0
LINE
  5
7E
330
1F
100
AcDbEntity
  8
10
 62
     7
370
    15
100
AcDbLine
 10
999.0
 20
31.0
 30
0.0
 11
1079.0
 21
31.0
 31
0.0
  0
LINE
  5
7F
330
1F
100
AcDbEntity
  8
10
 62
     7
370
    15
100
AcDbLine
 10
999.0
 20
24.0
 30
0.0
 11
1079.0
 21
24.0
 31
0.0
  0
LINE
  5
80
330
1F
100
AcDbEntity
  8
10
 62
     7
370
    15
100
AcDbLine
 10
999.0
 20
17.0
 30
0.0
 11
1079.0
 21
17.0
 31
0.0
  0
LINE
  5
81
330
1F
100
AcDbEntity
  8
5
 62
     7
370
    15
100
AcDbLine
 10
999.0
 20
66.0
 30
0.0
 11
1179.0
 21
66.0
 31
0.0
  0
LINE
  5
82
330
1F
100
AcDbEntity
  8
10
 62
     7
370
    15
100
AcDbLine
 10
999.0
 20
66.0
 30
0.0
 11
999.0
 21
10.0
 31
0.0
  0
LINE
  5
83
330
1F
100
AcDbEntity
  8
10
 62
     7
100
AcDbLine
 10
0.0
 20
96.0
 30
0.0
 11
25.0
 21
96.0
 31
0.0
  0
LINE
  5
84
330
1F
100
AcDbEntity
  8
10
 62
     7
100
AcDbLine
 10
0.0
 20
101.0
 30
0.0
 11
25.0
 21
101.0
 31
0.0
  0
LINE
  5
85
330
1F
100
AcDbEntity
  8
10
 62
     7
100
AcDbLine
 10
0.0
 20
83.0
 30
0.0
 11
25.0
 21
83.0
 31
0.0
  0
LINE
  5
86
330
1F
100
AcDbEntity
  8
10
 62
     7
100
AcDbLine
 10
0.0
 20
88.0
 30
0.0
 11
25.0
 21
88.0
 31
0.0
  0
LINE
  5
87
330
1F
100
AcDbEntity
  8
10
 62
     7
100
AcDbLine
 10
0.0
 20
70.0
 30
0.0
 11
25.0
 21
70.0
 31
0.0
  0
LINE
  5
88
330
1F
100
AcDbEntity
  8
10
 62
     7
100
AcDbLine
 10
0.0
 20
75.0
 30
0.0
 11
25.0
 21
75.0
 31
0.0
  0
LINE
  5
89
330
1F
100
AcDbEntity
  8
10
 62
     7
100
AcDbLine
 10
0.0
 20
57.0
 30
0.0
 11
25.0
 21
57.0
 31
0.0
  0
LINE
  5
8A
330
1F
100
AcDbEntity
  8
10
 62
     7
100
AcDbLine
 10
0.0
 20
62.0
 30
0.0
 11
25.0
 21
62.0
 31
0.0
  0
LINE
  5
8B
330
1F
100
AcDbEntity
  8
10
 62
     7
100
AcDbLine
 10
0.0
 20
44.0
 30
0.0
 11
25.0
 21
44.0
 31
0.0
  0
LINE
  5
8C
330
1F
100
AcDbEntity
  8
10
 62
     7
100
AcDbLine
 10
0.0
 20
49.0
 30
0.0
 11
25.0
 21
49.0
 31
0.0
  0
LINE
  5
8D
330
1F
100
AcDbEntity
  8
10
 62
     7
100
AcDbLine
 10
0.0
 20
31.0
 30
0.0
 11
25.0
 21
31.0
 31
0.0
  0
LINE
  5
8E
330
1F
100
AcDbEntity
  8
10
 62
     7
100
AcDbLine
 10
0.0
 20
36.0
 30
0.0
 11
25.0
 21
36.0
 31
0.0
  0
LINE
  5
8F
330
1F
100
AcDbEntity
  8
10
 62
     7
100
AcDbLine
 10
0.0
 20
23.0
 30
0.0
 11
25.0
 21
23.0
 31
0.0
  0
LINE
  5
90
330
1F
100
AcDbEntity
  8
10
 62
     7
100
AcDbLine
 10
0.0
 20
18.0
 30
0.0
 11
25.0
 21
18.0
 31
0.0
  0
LINE
  5
91
330
1F
100
AcDbEntity
  8
10
 62
     7
100
AcDbLine
 10
0.0
 20
109.0
 30
0.0
 11
25.0
 21
109.0
 31
0.0
  0
LINE
  5
92
330
1F
100
AcDbEntity
  8
10
 62
     7
100
AcDbLine
 10
0.0
 20
114.0
 30
0.0
 11
25.0
 21
114.0
 31
0.0
  0
LINE
  5
93
330
1F
100
AcDbEntity
  8
10
 62
     7
100
AcDbLine
 10
148.625
 20
0.0
 30
0.0
 11
148.625
 21
10.0
 31
0.0
  0
LINE
  5
94
330
1F
100
AcDbEntity
  8
10
 62
     7
100
AcDbLine
 10
297.25
 20
0.0
 30
0.0
 11
297.25
 21
10.0
 31
0.0
  0
LINE
  5
95
330
1F
100
AcDbEntity
  8
10
 62
     7
100
AcDbLine
 10
445.875
 20
0.0
 30
0.0
 11
445.875
 21
10.0
 31
0.0
  0
LINE
  5
96
330
1F
100
AcDbEntity
  8
10
 62
     7
100
AcDbLine
 10
743.125
 20
0.0
 30
0.0
 11
743.125
 21
10.0
 31
0.0
  0
LINE
  5
97
330
1F
100
AcDbEntity
  8
10
 62
     7
100
AcDbLine
 10
891.75
 20
0.0
 30
0.0
 11
891.75
 21
10.0
 31
0.0
  0
LINE
  5
98
330
1F
100
AcDbEntity
  8
10
 62
     7
100
AcDbLine
 10
1040.375
 20
0.0
 30
0.0
 11
1040.375
 21
10.0
 31
0.0
  0
LINE
  5
99
330
1F
100
AcDbEntity
  8
10
 62
     7
100
AcDbLine
 10
1189.0
 20
140.1666666667
 30
0.0
 11
1179.0
 21
140.1666666667
 31
0.0
  0
LINE
  5
9A
330
1F
100
AcDbEntity
  8
10
 62
     7
100
AcDbLine
 10
1189.0
 20
280.3333333333
 30
0.0
 11
1179.0
 21
280.3333333333
 31
0.0
  0
LINE
  5
9B
330
1F
100
AcDbEntity
  8
10
 62
     7
100
AcDbLine
 10
1189.0
 20
560.6666666667
 30
0.0
 11
1179.0
 21
560.6666666667
 31
0.0
  0
LINE
  5
9C
330
1F
100
AcDbEntity
  8
10
 62
     7
100
AcDbLine
 10
1189.0
 20
700.8333333333
 30
0.0
 11
1179.0
 21
700.8333333333
 31
0.0
  0
LINE
  5
9D
330
1F
100
AcDbEntity
  8
10
 62
     7
100
AcDbLine
 10
148.625
 20
831.0
 30
0.0
 11
148.625
 21
841.0
 31
0.0
  0
LINE
  5
9E
330
1F
100
AcDbEntity
  8
10
 62
     7
100
AcDbLine
 10
297.25
 20
831.0
 30
0.0
 11
297.25
 21
841.0
 31
0.0
  0
LINE
  5
9F
330
1F
100
AcDbEntity
  8
10
 62
     7
100
AcDbLine
 10
445.875
 20
831.0
 30
0.0
 11
445.875
 21
841.0
 31
0.0
  0
LINE
  5
A0
330
1F
100
AcDbEntity
  8
10
 62
     7
100
AcDbLine
 10
743.125
 20
831.0
 30
0.0
 11
743.125
 21
841.0
 31
0.0
  0
LINE
  5
A1
330
1F
100
AcDbEntity
  8
10
 62
     7
100
AcDbLine
 10
891.75
 20
831.0
 30
0.0
 11
891.75
 21
841.0
 31
0.0
  0
LINE
  5
A2
330
1F
100
AcDbEntity
  8
10
 62
     7
100
AcDbLine
 10
1040.375
 20
831.0
 30
0.0
 11
1040.375
 21
841.0
 31
0.0
  0
LINE
  5
A3
330
1F
100
AcDbEntity
  8
SLD-0
370
    15
100
AcDbLine
 10
1105.0
 20
18.9823983628
 30
0.0
 11
1105.0
 21
10.0
 31
0.0
  0
MTEXT
  5
A5
330
1F
100
AcDbEntity
  8
9
 62
     7
100
AcDbMText
 10
74.3759982893
 20
6.2617369681
 30
0.0
 40
3.5
 41
0.0
 71
     2
 72
     1
  1
1
  7
SLDTEXTSTYLE0
 73
     1
 44
1.0
  0
MTEXT
  5
A6
330
1F
100
AcDbEntity
  8
9
 62
     7
100
AcDbMText
 10
222.9375000177
 20
6.2617369681
 30
0.0
 40
3.5
 41
0.0
 71
     2
 72
     1
  1
2
  7
SLDTEXTSTYLE0
 73
     1
 44
1.0
  0
MTEXT
  5
A7
330
1F
100
AcDbEntity
  8
9
 62
     7
100
AcDbMText
 10
371.5646266928
 20
6.2617369681
 30
0.0
 40
3.5
 41
0.0
 71
     2
 72
     1
  1
3
  7
SLDTEXTSTYLE0
 73
     1
 44
1.0
  0
MTEXT
  5
A8
330
1F
100
AcDbEntity
  8
9
 62
     7
100
AcDbMText
 10
520.1814236036
 20
6.2617369681
 30
0.0
 40
3.5
 41
0.0
 71
     2
 72
     1
  1
4
  7
SLDTEXTSTYLE0
 73
     1
 44
1.0
  0
MTEXT
  5
A9
330
1F
100
AcDbEntity
  8
9
 62
     7
100
AcDbMText
 10
668.8128038617
 20
6.2617369681
 30
0.0
 40
3.5
 41
0.0
 71
     2
 72
     1
  1
5
  7
SLDTEXTSTYLE0
 73
     1
 44
1.0
  0
MTEXT
  5
AA
330
1F
100
AcDbEntity
  8
9
 62
     7
100
AcDbMText
 10
817.4381075893
 20
6.2617369681
 30
0.0
 40
3.5
 41
0.0
 71
     2
 72
     1
  1
6
  7
SLDTEXTSTYLE0
 73
     1
 44
1.0
  0
MTEXT
  5
AB
330
1F
100
AcDbEntity
  8
9
 62
     7
100
AcDbMText
 10
966.0661457963
 20
6.2617369681
 30
0.0
 40
3.5
 41
0.0
 71
     2
 72
     1
  1
7
  7
SLDTEXTSTYLE0
 73
     1
 44
1.0
  0
MTEXT
  5
AC
330
1F
100
AcDbEntity
  8
9
 62
     7
100
AcDbMText
 10
1114.6884114332
 20
6.2617369681
 30
0.0
 40
3.5
 41
0.0
 71
     2
 72
     1
  1
8
  7
SLDTEXTSTYLE0
 73
     1
 44
1.0
  0
MTEXT
  5
AD
330
1F
100
AcDbEntity
  8
9
 62
     7
100
AcDbMText
 10
1183.9811632317
 20
772.1784036348
 30
0.0
 40
3.5
 41
0.0
 71
     2
 72
     1
  1
A
  7
SLDTEXTSTYLE0
 73
     1
 44
1.0
  0
MTEXT
  5
AE
330
1F
100
AcDbEntity
  8
9
 62
     7
100
AcDbMText
 10
1184.0197482752
 20
632.0117369681
 30
0.0
 40
3.5
 41
0.0
 71
     2
 72
     1
  1
B
  7
SLDTEXTSTYLE0
 73
     1
 44
1.0
  0
MTEXT
  5
AF
330
1F
100
AcDbEntity
  8
9
 62
     7
100
AcDbMText
 10
1183.986631969
 20
491.8450703015
 30
0.0
 40
3.5
 41
0.0
 71
     2
 72
     1
  1
C
  7
SLDTEXTSTYLE0
 73
     1
 44
1.0
  0
MTEXT
  5
B0
330
1F
100
AcDbEntity
  8
9
 62
     7
100
AcDbMText
 10
1183.9990885248
 20
351.6784036348
 30
0.0
 40
3.5
 41
0.0
 71
     2
 72
     1
  1
D
  7
SLDTEXTSTYLE0
 73
     1
 44
1.0
  0
MTEXT
  5
B1
330
1F
100
AcDbEntity
  8
9
 62
     7
100
AcDbMText
 10
1184.0215712227
 20
211.5117369681
 30
0.0
 40
3.5
 41
0.0
 71
     2
 72
     1
  1
E
  7
SLDTEXTSTYLE0
 73
     1
 44
1.0
  0
MTEXT
  5
B2
330
1F
100
AcDbEntity
  8
9
 62
     7
100
AcDbMText
 10
1183.9921006672
 20
126.2617369681
 30
0.0
 40
3.5
 41
0.0
 71
     2
 72
     1
  1
F
  7
SLDTEXTSTYLE0
 73
     1
 44
1.0
  0
MTEXT
  5
B3
330
1F
100
AcDbEntity
  8
9
 62
     7
100
AcDbMText
 10
520.1814236036
 20
837.2617369681
 30
0.0
 40
3.5
 41
0.0
 71
     2
 72
     1
  1
4
  7
SLDTEXTSTYLE0
 73
     1
 44
1.0
  0
MTEXT
  5
B4
330
1F
100
AcDbEntity
  8
9
 62
     7
100
AcDbMText
 10
371.5646266928
 20
837.2617369681
 30
0.0
 40
3.5
 41
0.0
 71
     2
 72
     1
  1
3
  7
SLDTEXTSTYLE0
 73
     1
 44
1.0
  0
MTEXT
  5
B5
330
1F
100
AcDbEntity
  8
9
 62
     7
100
AcDbMText
 10
222.9375000177
 20
837.2617369681
 30
0.0
 40
3.5
 41
0.0
 71
     2
 72
     1
  1
2
  7
SLDTEXTSTYLE0
 73
     1
 44
1.0
  0
MTEXT
  5
B6
330
1F
100
AcDbEntity
  8
9
 62
     7
100
AcDbMText
 10
74.3759982893
 20
837.2617369681
 30
0.0
 40
3.5
 41
0.0
 71
     2
 72
     1
  1
1
  7
SLDTEXTSTYLE0
 73
     1
 44
1.0
  0
MTEXT
  5
B7
330
1F
100
AcDbEntity
  8
9
 62
     7
100
AcDbMText
 10
1114.6884114332
 20
837.2617369681
 30
0.0
 40
3.5
 41
0.0
 71
     2
 72
     1
  1
8
  7
SLDTEXTSTYLE0
 73
     1
 44
1.0
  0
MTEXT
  5
B8
330
1F
100
AcDbEntity
  8
9
 62
     7
100
AcDbMText
 10
966.0661457963
 20
837.2617369681
 30
0.0
 40
3.5
 41
0.0
 71
     2
 72
     1
  1
7
  7
SLDTEXTSTYLE0
 73
     1
 44
1.0
  0
MTEXT
  5
B9
330
1F
100
AcDbEntity
  8
9
 62
     7
100
AcDbMText
 10
817.4381075893
 20
837.2617369681
 30
0.0
 40
3.5
 41
0.0
 71
     2
 72
     1
  1
6
  7
SLDTEXTSTYLE0
 73
     1
 44
1.0
  0
MTEXT
  5
BA
330
1F
100
AcDbEntity
  8
9
 62
     7
100
AcDbMText
 10
668.8128038617
 20
837.2617369681
 30
0.0
 40
3.5
 41
0.0
 71
     2
 72
     1
  1
5
  7
SLDTEXTSTYLE0
 73
     1
 44
1.0
  0
MTEXT
  5
BB
330
1F
100
AcDbEntity
  8
9
 62
     7
100
AcDbMText
 10
12.4921006672
 20
126.2617369681
 30
0.0
 40
3.5
 41
0.0
 71
     2
 72
     1
  1
F
  7
SLDTEXTSTYLE0
 73
     1
 44
1.0
  0
MTEXT
  5
BC
330
1F
100
AcDbEntity
  8
9
 62
     7
100
AcDbMText
 10
12.5215712227
 20
211.5117369681
 30
0.0
 40
3.5
 41
0.0
 71
     2
 72
     1
  1
E
  7
SLDTEXTSTYLE0
 73
     1
 44
1.0
  0
MTEXT
  5
BD
330
1F
100
AcDbEntity
  8
9
 62
     7
100
AcDbMText
 10
12.4990885248
 20
351.6784036348
 30
0.0
 40
3.5
 41
0.0
 71
     2
 72
     1
  1
D
  7
SLDTEXTSTYLE0
 73
     1
 44
1.0
  0
MTEXT
  5
BE
330
1F
100
AcDbEntity
  8
9
 62
     7
100
AcDbMText
 10
12.486631969
 20
491.8450703015
 30
0.0
 40
3.5
 41
0.0
 71
     2
 72
     1
  1
C
  7
SLDTEXTSTYLE0
 73
     1
 44
1.0
  0
MTEXT
  5
BF
330
1F
100
AcDbEntity
  8
9
 62
     7
100
AcDbMText
 10
12.5197482752
 20
632.0117369681
 30
0.0
 40
3.5
 41
0.0
 71
     2
 72
     1
  1
B
  7
SLDTEXTSTYLE0
 73
     1
 44
1.0
  0
MTEXT
  5
C0
330
1F
100
AcDbEntity
  8
9
 62
     7
100
AcDbMText
 10
12.4811632317
 20
772.1784036348
 30
0.0
 40
3.5
 41
0.0
 71
     2
 72
     1
  1
A
  7
SLDTEXTSTYLE0
 73
     1
 44
1.0
  0
MTEXT
  5
C2
330
1F
100
AcDbEntity
  8
9
 62
     7
100
AcDbMText
 10
1045.0752832691
 20
15.2155134827
 30
0.0
 40
3.5
 41
0.0
 71
     2
 72
     1
  1
\M+194E1\M+18F79
  7
SLDTEXTSTYLE1
 73
     1
 44
1.0
  0
MTEXT
  5
C3
330
1F
100
AcDbEntity
  8
9
 62
     7
100
AcDbMText
 10
1045.1846585038
 20
36.3583587194
 30
0.0
 40
3.5
 41
0.0
 71
     2
 72
     1
  1
标\M+18F79\M+189BB
  7
SLDTEXTSTYLE1
 73
     1
 44
1.0
  0
MTEXT
  5
C4
330
1F
100
AcDbEntity
  8
9
 62
     7
100
AcDbMText
 10
1045.0752832691
 20
29.2301241977
 30
0.0
 40
3.5
 41
0.0
 71
     2
 72
     1
  1
\M+18D48艺
  7
SLDTEXTSTYLE1
 73
     1
 44
1.0
  0
MTEXT
  5
C5
330
1F
100
AcDbEntity
  8
9
 62
     7
100
AcDbMText
 10
1045.0752832691
 20
22.2492695624
 30
0.0
 40
3.5
 41
0.0
 71
     2
 72
     1
  1
审\M+18A6A
  7
SLDTEXTSTYLE1
 73
     1
 44
1.0
  0
MTEXT
  5
C6
330
1F
100
AcDbEntity
  8
9
 62
     7
100
AcDbMText
 10
1005.6447585121
 20
36.7666978954
 30
0.0
 40
3.5
 41
0.0
 71
     2
 72
     1
  1
设计
  7
SLDTEXTSTYLE1
 73
     1
 44
1.0
  0
MTEXT
  5
C8
330
1F
100
AcDbEntity
  8
9
 62
     7
100
AcDbMText
 10
1098.2739105271
 20
16.1881257794
 30
0.0
 40
3.5
 41
0.0
 71
     2
 72
     1
  1
\M+191E6  张
  7
SLDTEXTSTYLE2
 73
     1
 44
1.0
  0
MTEXT
  5
C9
330
1F
100
AcDbEntity
  8
9
 62
     7
100
AcDbMText
 10
1086.3826382728
 20
16.1881257794
 30
0.0
 40
3.5
 41
0.0
 71
     2
 72
     1
  1
\M+18BA4  张
  7
SLDTEXTSTYLE2
 73
     1
 44
1.0
  0
MTEXT
  5
CA
330
1F
100
AcDbEntity
  8
9
 62
     7
100
AcDbMText
 10
1123.67898119
 20
44.81026916
 30
0.0
 40
3.5
 41
0.0
 71
     2
 72
     1
  1
\M+194E4\M+197E1
  7
SLDTEXTSTYLE1
 73
     1
 44
1.0
  0
MTEXT
  5
CB
330
1F
100
AcDbEntity
  8
9
 62
     7
100
AcDbMText
 10
1111.7940389866
 20
44.81026916
 30
0.0
 40
3.5
 41
0.0
 71
     2
 72
     1
  1
\M+18F64\M+197CA
  7
SLDTEXTSTYLE1
 73
     1
 44
1.0
  0
MTEXT
  5
CD
330
1F
100
AcDbEntity
  8
9
 62
     7
100
AcDbMText
 10
1092.6508236833
 20
44.81026916
 30
0.0
 40
3.5
 41
0.0
 71
     2
 72
     1
  1
阶 \M+19269 标 记
  7
SLDTEXTSTYLE3
 73
     1
 44
1.0
  0
MTEXT
  5
CF
330
1F
100
AcDbEntity
  8
9
 62
     7
100
AcDbMText
 10
1071.6102216837
 20
43.3061811603
 30
0.0
 40
3.5
 41
0.0
 71
     2
 72
     1
  1
\M+1944E \M+18C8E \M+193FA
  7
SLDTEXTSTYLE4
 73
     1
 44
1.0
  0
MTEXT
  5
D0
330
1F
100
AcDbEntity
  8
9
 62
     7
100
AcDbMText
 10
1057.5368636346
 20
43.3061811603
 30
0.0
 40
3.5
 41
0.0
 71
     2
 72
     1
  1
签\M+196BC
  7
SLDTEXTSTYLE1
 73
     1
 44
1.0
  0
MTEXT
  5
D1
330
1F
100
AcDbEntity
  8
9
 62
     7
100
AcDbMText
 10
1043.4823985194
 20
43.3061811603
 30
0.0
 40
3.5
 41
0.0
 71
     2
 72
     1
  1
\M+18D58\M+189FC\M+195B6\M+18C8F\M+18D86
  7
SLDTEXTSTYLE1
 73
     1
 44
1.0
  0
MTEXT
  5
D2
330
1F
100
AcDbEntity
  8
9
 62
     7
100
AcDbMText
 10
1027.3080178052
 20
43.3061811603
 30
0.0
 40
3.5
 41
0.0
 71
     2
 72
     1
  1
\M+195AA\M+18BE6
  7
SLDTEXTSTYLE1
 73
     1
 44
1.0
  0
MTEXT
  5
D3
330
1F
100
AcDbEntity
  8
9
 62
     7
100
AcDbMText
 10
1014.1711196141
 20
43.3061811603
 30
0.0
 40
3.5
 41
0.0
 71
     2
 72
     1
  1
处\M+19094
  7
SLDTEXTSTYLE1
 73
     1
 44
1.0
  0
MTEXT
  5
D4
330
1F
100
AcDbEntity
  8
9
 62
     7
100
AcDbMText
 10
1004.2451426523
 20
43.3061811603
 30
0.0
 40
3.5
 41
0.0
 71
     2
 72
     1
  1
标记
  7
SLDTEXTSTYLE1
 73
     1
 44
1.0
  0
MTEXT
  5
D5
330
1F
100
AcDbEntity
  8
9
 62
     7
100
AcDbMText
 10
4.2121999812
 20
48.4330613846
 30
0.0
 40
3.5
 41
0.0
 71
     1
 72
     1
  1
\M+192EA 图 总 \M+18D86
  7
SLDTEXTSTYLE3
 73
     1
 44
1.0
  0
MTEXT
  5
D6
330
1F
100
AcDbEntity
  8
9
 62
     7
100
AcDbMText
 10
5.4590751331
 20
61.2005832455
 30
0.0
 40
3.5
 41
0.0
 71
     1
 72
     1
  1
\M+18B8C\M+192EA图总\M+18D86
  7
SLDTEXTSTYLE1
 73
     1
 44
1.0
  0
MTEXT
  5
D7
330
1F
100
AcDbEntity
  8
9
 62
     7
100
AcDbMText
 10
2.9328244653
 20
100.2755979073
 30
0.0
 40
3.5
 41
0.0
 71
     1
 72
     1
  1
\M+18ED8(\M+192CA)\M+19770\M+18C8F\M+1936F记
  7
SLDTEXTSTYLE1
 73
     1
 44
1.0
  0
MTEXT
  5
D9
330
1F
100
AcDbEntity
  8
9
 62
     7
100
AcDbMText
 10
13.1292139244
 20
87.1759996026
 30
0.0
 40
3.5
 41
0.0
 71
     2
 72
     1
  1
\M+19560    图
  7
SLDTEXTSTYLE5
 73
     1
 44
1.0
  0
MTEXT
  5
DA
330
1F
100
AcDbEntity
  8
9
 62
     7
100
AcDbMText
 10
13.1292139244
 20
74.1365133241
 30
0.0
 40
3.5
 41
0.0
 71
     2
 72
     1
  1
\M+19560    \M+18D5A
  7
SLDTEXTSTYLE5
 73
     1
 44
1.0
  0
MTEXT
  5
DB
330
1F
100
AcDbEntity
  8
9
 62
     7
100
AcDbMText
 10
12.6912097662
 20
35.1925535267
 30
0.0
 40
3.5
 41
0.0
 71
     2
 72
     1
  1
签    \M+18E9A
  7
SLDTEXTSTYLE5
 73
     1
 44
1.0
  0
MTEXT
  5
DC
330
1F
100
AcDbEntity
  8
9
 62
     7
100
AcDbMText
 10
12.6912097662
 20
22.2333023039
 30
0.0
 40
3.5
 41
0.0
 71
     2
 72
     1
  1
\M+193FA    \M+18AFA
  7
SLDTEXTSTYLE5
 73
     1
 44
1.0
  0
MTEXT
  5
DD
330
1F
100
AcDbEntity
  8
9
 62
     7
100
AcDbMText
 10
4.4821997088
 20
113.3598941288
 30
0.0
 40
3.5
 41
0.0
 71
     1
 72
     1
  1
\M+197EB \M+18C8F \M+191E3 \M+18D86
  7
SLDTEXTSTYLE3
 73
     1
 44
1.0
  0
MTEXT
  5
DE
330
1F
100
AcDbEntity
  8
SLD-0
100
AcDbMText
 10
1130.8513100353
 20
16.1881260123
 30
0.0
 40
3.5
 41
0.0
 71
     1
 72
     1
  1
\M+191D6\M+191E3
  7
SLDTEXTSTYLE1
 73
     1
 44
1.0
  0
MTEXT
  5
DF
330
1F
100
AcDbEntity
  8
10
 62
     7
100
AcDbMText
 10
1110.8444492481
 20
16.1881260123
 30
0.0
 40
3.5
 41
0.0
 71
     2
 72
     1
  1
\M+194C5\M+1967B
  7
SLDTEXTSTYLE1
 73
     1
 44
1.0
  0
MTEXT
  5
E0
330
1F
100
AcDbEntity
  8
SLD-0
100
AcDbMText
 10
1124.4373146309
 20
35.1578012796
 30
0.0
 40
3.5
 41
0.0
 71
     2
 72
     1
  1
2:1
  7
SLDTEXTSTYLE0
 73
     1
 44
1.0
  0
MTEXT
  5
E1
330
1F
100
AcDbEntity
  8
SLD-0
100
AcDbMText
 10
55.3198779845
 20
821.7376401445
 30
0.0
 40
3.5
 41
0.0
 71
     2
 72
     1
  1
\M+18167图样\M+191E3\M+18D86\M+18168
  7
SLDTEXTSTYLE1
 11
-1.0
 21
-6.982962677686267E-15
 31
0.0
 73
     1
 44
1.0
  0
MTEXT
  5
E2
330
1F
100
AcDbEntity
  8
10
100
AcDbMText
 10
1005.4940640002
 20
29.8567957274
 30
0.0
 40
3.5
 41
0.0
 71
     2
 72
     1
  1
\M+18D5A\M+18A6A
  7
SLDTEXTSTYLE1
 73
     1
 44
1.0
  0
MTEXT
  5
E3
330
1F
100
AcDbEntity
  8
10
100
AcDbMText
 10
1005.5621194921
 20
22.8296680967
 30
0.0
 40
3.5
 41
0.0
 71
     2
 72
     1
  1
\M+18EE5\M+18AC7设计
  7
SLDTEXTSTYLE1
 73
     1
 44
1.0
  0
MTEXT
  5
E4
330
1F
100
AcDbEntity
  8
10
100
AcDbMText
 10
1109.4754050667
 20
59.8578950451
 30
0.0
 40
3.5
 41
0.0
 71
     2
 72
     1
  1
\M+18DDE质 <\M+196A2\M+18E77\M+192E8>
  7
SLDTEXTSTYLE1
 73
     1
 44
1.0
  0
MTEXT
  5
E5
330
1F
100
AcDbEntity
  8
10
100
AcDbMText
 10
1157.1717832568
 20
26.3656999509
 30
0.0
 40
3.5
 41
0.0
 71
     2
 72
     1
  1
\M+18167图样\M+191E3\M+18D86\M+18168
  7
SLDTEXTSTYLE1
 73
     1
 44
1.0
  0
MTEXT
  5
E6
330
1F
100
AcDbEntity
  8
10
100
AcDbMText
 10
1157.1693534362
 20
40.5105807917
 30
0.0
 40
3.5
 41
0.0
 71
     2
 72
     1
  1
\M+18167图样\M+196BC\M+18FCC\M+18168
  7
SLDTEXTSTYLE1
 73
     1
 44
1.0
  0
MTEXT
  5
E7
330
1F
100
AcDbEntity
  8
10
100
AcDbMText
 10
1113.6436913664
 20
35.1578012796
 30
0.0
 40
3.5
 41
0.0
 71
     2
 72
     1
  1
0.014
  7
SLDTEXTSTYLE0
 73
     1
 44
1.0
  0
MTEXT
  5
E8
330
1F
100
AcDbEntity
  8
10
100
AcDbMText
 10
1097.1353587749
 20
16.1881260123
 30
0.0
 40
3.5
 41
0.0
 71
     1
 72
     1
  1
1
  7
SLDTEXTSTYLE0
 73
     1
 44
1.0
  0
MTEXT
  5
E9
330
1F
100
AcDbEntity
  8
10
100
AcDbMText
 10
1085.1098855459
 20
16.1881260123
 30
0.0
 40
3.5
 41
0.0
 71
     1
 72
     1
  1
1
  7
SLDTEXTSTYLE0
 73
     1
 44
1.0
  0
ARC
  5
EA
330
1F
100
AcDbEntity
  8
0
  6
Continuous
 62
     7
370
    15
100
AcDbCircle
 10
348.5436363636
 20
530.2241991342
 30
0.0
 40
4.0
100
AcDbArc
 50
90.0
 51
180.0
  0
ARC
  5
EB
330
1F
100
AcDbEntity
  8
0
  6
Continuous
 62
     7
370
    15
100
AcDbCircle
 10
424.5436363636
 20
530.2241991342
 30
0.0
 40
4.0
100
AcDbArc
 50
0.0
 51
90.0
  0
LINE
  5
EC
330
1F
100
AcDbEntity
  8
0
  6
Continuous
 62
     7
370
    15
100
AcDbLine
 10
428.5436363636
 20
513.2241991342
 30
0.0
 11
428.5436363636
 21
530.2241991342
 31
0.0
  0
ARC
  5
ED
330
1F
100
AcDbEntity
  8
0
  6
Continuous
 62
     7
370
    15
100
AcDbCircle
 10
432.5436363636
 20
513.2241991342
 30
0.0
 40
4.0
100
AcDbArc
 50
180.0
 51
270.0
  0
ARC
  5
EE
330
1F
100
AcDbEntity
  8
0
  6
Continuous
 62
     7
370
    15
100
AcDbCircle
 10
432.5436363636
 20
505.2241991342
 30
0.0
 40
4.000000000000057
100
AcDbArc
 50
0.0
 51
90.0
  0
ARC
  5
EF
330
1F
100
AcDbEntity
  8
0
  6
Continuous
 62
     7
370
    15
100
AcDbCircle
 10
432.5436363636
 20
443.2241991342
 30
0.0
 40
4.000000000000057
100
AcDbArc
 50
270.0
 51
0.0
  0
ARC
  5
F0
330
1F
100
AcDbEntity
  8
0
  6
Continuous
 62
     7
370
    15
100
AcDbCircle
 10
340.5436363636
 20
443.2241991342
 30
0.0
 40
4.0
100
AcDbArc
 50
180.0
 51
270.0
  0
ARC
  5
F1
330
1F
100
AcDbEntity
  8
0
  6
Continuous
 62
     7
370
    15
100
AcDbCircle
 10
340.5436363636
 20
505.2241991342
 30
0.0
 40
4.0
100
AcDbArc
 50
90.0
 51
180.0
  0
ARC
  5
F2
330
1F
100
AcDbEntity
  8
0
  6
Continuous
 62
     7
370
    15
100
AcDbCircle
 10
340.5436363636
 20
513.2241991342
 30
0.0
 40
4.0
100
AcDbArc
 50
270.0
 51
0.0
  0
LINE
  5
F3
330
1F
100
AcDbEntity
  8
0
  6
Continuous
 62
     7
370
    15
100
AcDbLine
 10
344.5436363636
 20
530.2241991342
 30
0.0
 11
344.5436363636
 21
513.2241991342
 31
0.0
  0
CIRCLE
  5
F4
330
1F
100
AcDbEntity
  8
0
  6
Continuous
 62
     7
370
    15
100
AcDbCircle
 10
361.5436363636
 20
529.7241991342
 30
0.0
 40
3.0
  0
CIRCLE
  5
F5
330
1F
100
AcDbEntity
  8
0
  6
Continuous
 62
     7
370
    15
100
AcDbCircle
 10
386.5436363636
 20
529.7241991342
 30
0.0
 40
3.0
  0
CIRCLE
  5
F6
330
1F
100
AcDbEntity
  8
0
  6
Continuous
 62
     7
370
    15
100
AcDbCircle
 10
411.5436363636
 20
529.7241991342
 30
0.0
 40
3.0
  0
CIRCLE
  5
F7
330
1F
100
AcDbEntity
  8
0
  6
Continuous
 62
     7
370
    15
100
AcDbCircle
 10
420.5436363636
 20
509.2241991342
 30
0.0
 40
5.75
  0
CIRCLE
  5
F8
330
1F
100
AcDbEntity
  8
0
  6
Continuous
 62
     7
370
    15
100
AcDbCircle
 10
403.5436363636
 20
509.2241991342
 30
0.0
 40
5.550000000000068
  0
CIRCLE
  5
F9
330
1F
100
AcDbEntity
  8
0
  6
Continuous
 62
     7
370
    15
100
AcDbCircle
 10
386.5436363636
 20
509.2241991342
 30
0.0
 40
5.75
  0
CIRCLE
  5
FA
330
1F
100
AcDbEntity
  8
0
  6
Continuous
 62
     7
370
    15
100
AcDbCircle
 10
352.5436363636
 20
509.2241991342
 30
0.0
 40
5.550000000000068
  0
CIRCLE
  5
FB
330
1F
100
AcDbEntity
  8
0
  6
Continuous
 62
     7
370
    15
100
AcDbCircle
 10
352.5436363636
 20
489.2241991342
 30
0.0
 40
4.900000000000034
  0
CIRCLE
  5
FC
330
1F
100
AcDbEntity
  8
0
  6
Continuous
 62
     7
370
    15
100
AcDbCircle
 10
369.5436363636
 20
489.2241991342
 30
0.0
 40
4.900000000000034
  0
CIRCLE
  5
FD
330
1F
100
AcDbEntity
  8
0
  6
Continuous
 62
     7
370
    15
100
AcDbCircle
 10
386.5436363636
 20
489.2241991342
 30
0.0
 40
6.0
  0
CIRCLE
  5
FE
330
1F
100
AcDbEntity
  8
0
  6
Continuous
 62
     7
370
    15
100
AcDbCircle
 10
403.5436363636
 20
489.2241991342
 30
0.0
 40
5.550000000000011
  0
CIRCLE
  5
FF
330
1F
100
AcDbEntity
  8
0
  6
Continuous
 62
     7
370
    15
100
AcDbCircle
 10
420.5436363636
 20
489.2241991342
 30
0.0
 40
5.550000000000011
  0
CIRCLE
  5
100
330
1F
100
AcDbEntity
  8
0
  6
Continuous
 62
     7
370
    15
100
AcDbCircle
 10
374.0436363636
 20
469.2241991342
 30
0.0
 40
5.549999999999955
  0
CIRCLE
  5
101
330
1F
100
AcDbEntity
  8
0
  6
Continuous
 62
     7
370
    15
100
AcDbCircle
 10
399.0436363636
 20
469.2241991342
 30
0.0
 40
5.549999999999955
  0
CIRCLE
  5
102
330
1F
100
AcDbEntity
  8
0
  6
Continuous
 62
     7
370
    15
100
AcDbCircle
 10
361.5436363636
 20
449.2241991342
 30
0.0
 40
6.0
  0
CIRCLE
  5
103
330
1F
100
AcDbEntity
  8
0
  6
Continuous
 62
     7
370
    15
100
AcDbCircle
 10
386.5436363636
 20
449.2241991342
 30
0.0
 40
4.900000000000034
  0
CIRCLE
  5
104
330
1F
100
AcDbEntity
  8
0
  6
Continuous
 62
     7
370
    15
100
AcDbCircle
 10
411.5436363636
 20
449.2241991342
 30
0.0
 40
6.0
  0
CIRCLE
  5
105
330
1F
100
AcDbEntity
  8
0
  6
Continuous
 62
     7
370
    15
100
AcDbCircle
 10
369.5436363636
 20
509.2241991342
 30
0.0
 40
6.0
  0
LINE
  5
106
330
1F
100
AcDbEntity
  8
0
  6
Continuous
 62
     7
370
    15
100
AcDbLine
 10
348.5436363636
 20
534.2241991342
 30
0.0
 11
424.5436363636
 21
534.2241991342
 31
0.0
  0
LINE
  5
107
330
1F
100
AcDbEntity
  8
0
  6
Continuous
 62
     7
370
    15
100
AcDbLine
 10
336.5436363636
 20
443.2241991342
 30
0.0
 11
336.5436363636
 21
505.2241991342
 31
0.0
  0
LINE
  5
108
330
1F
100
AcDbEntity
  8
0
  6
Continuous
 62
     7
370
    15
100
AcDbLine
 10
432.5436363636
 20
439.2241991342
 30
0.0
 11
340.5436363636
 21
439.2241991342
 31
0.0
  0
LINE
  5
109
330
1F
100
AcDbEntity
  8
0
  6
Continuous
 62
     7
370
    15
100
AcDbLine
 10
436.5436363636
 20
505.2241991342
 30
0.0
 11
436.5436363636
 21
443.2241991342
 31
0.0
  0
CIRCLE
  5
10A
330
1F
100
AcDbEntity
  8
0
  6
Continuous
 62
     7
370
    15
100
AcDbCircle
 10
432.5436363636
 20
499.2241991342
 30
0.0
 40
1.599999999999966
  0
CIRCLE
  5
10B
330
1F
100
AcDbEntity
  8
0
  6
Continuous
 62
     7
370
    15
100
AcDbCircle
 10
432.5436363636
 20
449.2241991342
 30
0.0
 40
1.599999999999966
  0
CIRCLE
  5
10C
330
1F
100
AcDbEntity
  8
0
  6
Continuous
 62
     7
370
    15
100
AcDbCircle
 10
340.5436363636
 20
499.2241991342
 30
0.0
 40
1.599999999999966
  0
CIRCLE
  5
10D
330
1F
100
AcDbEntity
  8
0
  6
Continuous
 62
     7
370
    15
100
AcDbCircle
 10
340.5436363636
 20
449.2241991342
 30
0.0
 40
1.60000000000008
  0
DIMENSION
  5
10E
330
1F
100
AcDbEntity
  8
10
100
AcDbDimension
  2
_D
 10
512.5436363636
 20
439.2241991342
 30
0.0
 11
512.5436363636
 21
472.5239628211
 31
0.0
 70
   160
  1
<>
 71
     2
 42
-1.0
  3
SLDDIMSTYLE0
100
AcDbAlignedDimension
 13
424.5436363636
 23
534.2241991342
 33
0.0
 14
432.5436363636
 24
439.2241991342
 34
0.0
 50
90.0
100
AcDbRotatedDimension
  0
INSERT
  5
124
330
1F
100
AcDbEntity
  8
10
100
AcDbBlockReference
  2
SW_CENTERMARKSYMBOL_0
 10
340.5436363636
 20
449.2241991342
 30
0.0
  0
INSERT
  5
130
330
1F
100
AcDbEntity
  8
10
100
AcDbBlockReference
  2
SW_CENTERMARKSYMBOL_1
 10
340.5436363636
 20
499.2241991342
 30
0.0
  0
INSERT
  5
13C
330
1F
100
AcDbEntity
  8
10
100
AcDbBlockReference
  2
SW_CENTERMARKSYMBOL_2
 10
432.5436363636
 20
449.2241991342
 30
0.0
  0
INSERT
  5
148
330
1F
100
AcDbEntity
  8
10
100
AcDbBlockReference
  2
SW_CENTERMARKSYMBOL_3
 10
432.5436363636
 20
499.2241991342
 30
0.0
  0
INSERT
  5
154
330
1F
100
AcDbEntity
  8
10
100
AcDbBlockReference
  2
SW_CENTERMARKSYMBOL_4
 10
361.5436363636
 20
529.7241991342
 30
0.0
  0
INSERT
  5
160
330
1F
100
AcDbEntity
  8
10
100
AcDbBlockReference
  2
SW_CENTERMARKSYMBOL_5
 10
386.5436363636
 20
529.7241991342
 30
0.0
  0
INSERT
  5
16C
330
1F
100
AcDbEntity
  8
10
100
AcDbBlockReference
  2
SW_CENTERMARKSYMBOL_6
 10
411.5436363636
 20
529.7241991342
 30
0.0
  0
INSERT
  5
178
330
1F
100
AcDbEntity
  8
10
100
AcDbBlockReference
  2
SW_CENTERMARKSYMBOL_7
 10
420.5436363636
 20
509.2241991342
 30
0.0
  0
INSERT
  5
184
330
1F
100
AcDbEntity
  8
10
100
AcDbBlockReference
  2
SW_CENTERMARKSYMBOL_8
 10
403.5436363636
 20
509.2241991342
 30
0.0
  0
INSERT
  5
190
330
1F
100
AcDbEntity
  8
10
100
AcDbBlockReference
  2
SW_CENTERMARKSYMBOL_9
 10
386.5436363636
 20
509.2241991342
 30
0.0
  0
INSERT
  5
19C
330
1F
100
AcDbEntity
  8
10
100
AcDbBlockReference
  2
SW_CENTERMARKSYMBOL_10
 10
369.5436363636
 20
509.2241991342
 30
0.0
  0
INSERT
  5
1A8
330
1F
100
AcDbEntity
  8
10
100
AcDbBlockReference
  2
SW_CENTERMARKSYMBOL_11
 10
352.5436363636
 20
509.2241991342
 30
0.0
  0
INSERT
  5
1B4
330
1F
100
AcDbEntity
  8
10
100
AcDbBlockReference
  2
SW_CENTERMARKSYMBOL_12
 10
352.5436363636
 20
489.2241991342
 30
0.0
  0
INSERT
  5
1C0
330
1F
100
AcDbEntity
  8
10
100
AcDbBlockReference
  2
SW_CENTERMARKSYMBOL_13
 10
369.5436363636
 20
489.2241991342
 30
0.0
  0
INSERT
  5
1CC
330
1F
100
AcDbEntity
  8
10
100
AcDbBlockReference
  2
SW_CENTERMARKSYMBOL_14
 10
386.5436363636
 20
489.2241991342
 30
0.0
  0
INSERT
  5
1D8
330
1F
100
AcDbEntity
  8
10
100
AcDbBlockReference
  2
SW_CENTERMARKSYMBOL_15
 10
403.5436363636
 20
489.2241991342
 30
0.0
  0
INSERT
  5
1E4
330
1F
100
AcDbEntity
  8
10
100
AcDbBlockReference
  2
SW_CENTERMARKSYMBOL_16
 10
420.5436363636
 20
489.2241991342
 30
0.0
  0
INSERT
  5
1F0
330
1F
100
AcDbEntity
  8
10
100
AcDbBlockReference
  2
SW_CENTERMARKSYMBOL_17
 10
374.0436363636
 20
469.2241991342
 30
0.0
  0
INSERT
  5
1FC
330
1F
100
AcDbEntity
  8
10
100
AcDbBlockReference
  2
SW_CENTERMARKSYMBOL_18
 10
399.0436363636
 20
469.2241991342
 30
0.0
  0
INSERT
  5
208
330
1F
100
AcDbEntity
  8
10
100
AcDbBlockReference
  2
SW_CENTERMARKSYMBOL_19
 10
361.5436363636
 20
449.2241991342
 30
0.0
  0
INSERT
  5
214
330
1F
100
AcDbEntity
  8
10
100
AcDbBlockReference
  2
SW_CENTERMARKSYMBOL_20
 10
386.5436363636
 20
449.2241991342
 30
0.0
  0
INSERT
  5
220
330
1F
100
AcDbEntity
  8
10
100
AcDbBlockReference
  2
SW_CENTERMARKSYMBOL_21
 10
411.5436363636
 20
449.2241991342
 30
0.0
  0
ENDSEC
  0
SECTION
  2
OBJECTS
  0
DICTIONARY
  5
C
330
0
100
AcDbDictionary
281
     1
  3
ACAD_GROUP
350
D
  3
ACAD_LAYOUT
350
1A
  3
ACAD_MLINESTYLE
350
17
  3
ACAD_PLOTSETTINGS
350
19
  3
ACAD_PLOTSTYLENAME
350
E
  0
DICTIONARY
  5
D
102
{ACAD_REACTORS
330
C
102
}
330
C
100
AcDbDictionary
281
     1
  0
DICTIONARY
  5
1A
102
{ACAD_REACTORS
330
C
102
}
330
C
100
AcDbDictionary
281
     1
  3
Layout1
350
1E
  3
Layout2
350
26
  3
Model
350
22
  0
DICTIONARY
  5
17
102
{ACAD_REACTORS
330
C
102
}
330
C
100
AcDbDictionary
281
     1
  3
Standard
350
18
  0
DICTIONARY
  5
19
102
{ACAD_REACTORS
330
C
102
}
330
C
100
AcDbDictionary
281
     1
  0
ACDBDICTIONARYWDFLT
  5
E
102
{ACAD_REACTORS
330
C
102
}
330
C
100
AcDbDictionary
281
     1
  3
Normal
350
F
100
AcDbDictionaryWithDefault
340
F
  0
LAYOUT
  5
1E
102
{ACAD_REACTORS
330
1A
102
}
330
1A
100
AcDbPlotSettings
  1

  2
none_device
  4

  6

 40
0.0
 41
0.0
 42
0.0
 43
0.0
 44
0.0
 45
0.0
 46
0.0
 47
0.0
 48
0.0
 49
0.0
140
0.0
141
0.0
142
1.0
143
1.0
 70
   688
 72
     0
 73
     0
 74
     5
  7

 75
    16
147
1.0
148
0.0
149
0.0
100
AcDbLayout
  1
Layout1
 70
     1
 71
     1
 10
0.0
 20
0.0
 11
420.0
 21
297.0
 12
0.0
 22
0.0
 32
0.0
 14
1.0000000000E+20
 24
1.0000000000E+20
 34
1.0000000000E+20
 15
-1.0000000000E+20
 25
-1.0000000000E+20
 35
-1.0000000000E+20
146
0.0
 13
0.0
 23
0.0
 33
0.0
 16
1.0
 26
0.0
 36
0.0
 17
0.0
 27
1.0
 37
0.0
 76
     0
330
1B
  0
LAYOUT
  5
26
102
{ACAD_REACTORS
330
1A
102
}
330
1A
100
AcDbPlotSettings
  1

  2
none_device
  4

  6

 40
0.0
 41
0.0
 42
0.0
 43
0.0
 44
0.0
 45
0.0
 46
0.0
 47
0.0
 48
0.0
 49
0.0
140
0.0
141
0.0
142
1.0
143
1.0
 70
   688
 72
     0
 73
     0
 74
     5
  7

 75
    16
147
1.0
148
0.0
149
0.0
100
AcDbLayout
  1
Layout2
 70
     1
 71
     2
 10
0.0
 20
0.0
 11
0.0
 21
0.0
 12
0.0
 22
0.0
 32
0.0
 14
0.0
 24
0.0
 34
0.0
 15
0.0
 25
0.0
 35
0.0
146
0.0
 13
0.0
 23
0.0
 33
0.0
 16
1.0
 26
0.0
 36
0.0
 17
0.0
 27
1.0
 37
0.0
 76
     0
330
23
  0
LAYOUT
  5
22
102
{ACAD_REACTORS
330
1A
102
}
330
1A
100
AcDbPlotSettings
  1

  2
none_device
  4

  6

 40
0.0
 41
0.0
 42
0.0
 43
0.0
 44
0.0
 45
0.0
 46
0.0
 47
0.0
 48
0.0
 49
0.0
140
0.0
141
0.0
142
1.0
143
1.0
 70
  1712
 72
     0
 73
     0
 74
     0
  7

 75
     0
147
1.0
148
0.0
149
0.0
100
AcDbLayout
  1
Model
 70
     1
 71
     0
 10
0.0
 20
0.0
 11
1189.0
 21
841.0
 12
0.0
 22
0.0
 32
0.0
 14
0.0
 24
0.0
 34
0.0
 15
1189.0
 25
841.0
 35
0.0
146
0.0
 13
0.0
 23
0.0
 33
0.0
 16
1.0
 26
0.0
 36
0.0
 17
0.0
 27
1.0
 37
0.0
 76
     0
330
1F
331
29
  0
MLINESTYLE
  5
18
102
{ACAD_REACTORS
330
17
102
}
330
17
100
AcDbMlineStyle
  2
Standard
 70
     0
  3

 62
   256
 51
90.0
 52
90.0
 71
     2
 49
0.5
 62
   256
  6
BYLAYER
 49
-0.5
 62
   256
  6
BYLAYER
  0
ACDBPLACEHOLDER
  5
F
102
{ACAD_REACTORS
330
E
102
}
330
E
  0
ENDSEC
  0
EOF
